# MagicaVoxel @ Ephtracy

# group
o 

# material
mtllib chasm wall.mtl
usemtl palette

# normals
vn -1 0 0
vn 1 0 0
vn 0 0 1
vn 0 0 -1
vn 0 -1 0
vn 0 1 0

# texcoords
vt 0.169922 0.5
vt 0.197266 0.5
vt 0.263672 0.5
vt 0.955078 0.5

# verts
v -0.8 0 0.8
v -0.8 0 -0.8
v -0.8 0.2 0.8
v -0.8 0.2 -0.5
v -0.8 0.2 -0.6
v -0.8 0.2 -0.8
v -0.8 0.3 -0.5
v -0.8 0.3 -0.6
v -0.8 0.3 -0.7
v -0.8 0.6 -0.5
v -0.8 0.6 -0.6
v -0.8 0.6 -0.7
v -0.8 0.6 -0.8
v -0.8 0.9 -0.6
v -0.8 0.9 -0.7
v -0.8 1.1 -0.6
v -0.8 1.1 -0.7
v -0.8 1.2 -0.7
v -0.8 1.2 -0.8
v -0.8 1.6 -0.7
v -0.8 1.6 -0.8
v -0.7 0.2 -0.4
v -0.7 0.2 -0.5
v -0.7 0.3 -0.4
v -0.7 0.3 -0.5
v -0.7 0.6 -0.5
v -0.7 0.6 -0.6
v -0.7 0.8 -0.5
v -0.7 0.8 -0.6
v -0.7 1.1 -0.6
v -0.7 1.1 -0.7
v -0.7 1.2 -0.7
v -0.7 1.3 -0.6
v -0.7 1.3 -0.7
v -0.6 0.3 -0.4
v -0.6 0.3 -0.5
v -0.6 0.4 -0.4
v -0.6 0.4 -0.5
v -0.5 0.4 -0.4
v -0.5 0.4 -0.5
v -0.5 0.5 -0.4
v -0.5 0.5 -0.5
v -0.5 0.8 -0.5
v -0.5 0.8 -0.6
v -0.5 0.9 -0.5
v -0.5 0.9 -0.6
v -0.5 1.3 -0.6
v -0.5 1.3 -0.7
v -0.5 1.4 -0.6
v -0.5 1.4 -0.7
v -0.4 0.5 -0.4
v -0.4 0.5 -0.5
v -0.4 0.6 -0.4
v -0.4 0.6 -0.5
v -0.4 0.9 -0.5
v -0.4 0.9 -0.6
v -0.4 1 -0.5
v -0.4 1 -0.6
v -0.3 1 -0.5
v -0.3 1 -0.6
v -0.3 1.1 -0.5
v -0.3 1.1 -0.6
v -0.2 0.6 -0.4
v -0.2 0.6 -0.5
v -0.2 0.8 -0.4
v -0.2 0.8 -0.5
v 0.1 0.2 -0.5
v 0.1 0.2 -0.7
v 0.1 0.3 -0.5
v 0.1 0.3 -0.7
v 0.1 1.2 -0.6
v 0.1 1.2 -0.7
v 0.1 1.3 -0.6
v 0.1 1.3 -0.7
v 0.3 0.2 -0.4
v 0.3 0.2 -0.5
v 0.3 0.3 -0.4
v 0.3 0.3 -0.5
v 0.4 0.3 -0.4
v 0.4 0.3 -0.5
v 0.4 0.4 -0.4
v 0.4 0.4 -0.5
v 0.4 0.5 -0.4
v 0.4 0.5 -0.5
v 0.4 0.6 -0.5
v 0.4 0.6 -0.6
v 0.4 0.7 -0.5
v 0.4 0.7 -0.6
v 0.5 0.2 -0.3
v 0.5 0.2 -0.4
v 0.5 0.2 -0.6
v 0.5 0.2 -0.7
v 0.5 0.3 -0.3
v 0.5 0.3 -0.4
v 0.5 0.3 -0.6
v 0.5 0.3 -0.7
v 0.5 0.7 -0.5
v 0.5 0.7 -0.6
v 0.5 0.8 -0.5
v 0.5 0.8 -0.6
v 0.7 1.1 -0.6
v 0.7 1.1 -0.7
v 0.7 1.2 -0.6
v 0.7 1.2 -0.7
v -0.7 0.2 -0.5
v -0.7 0.2 -0.6
v -0.7 0.2 -0.7
v -0.7 0.3 -0.5
v -0.7 0.3 -0.6
v -0.7 0.3 -0.7
v -0.2 1 -0.5
v -0.2 1 -0.6
v -0.2 1.1 -0.5
v -0.2 1.1 -0.6
v -0.2 1.3 -0.6
v -0.2 1.3 -0.7
v -0.2 1.4 -0.6
v -0.2 1.4 -0.7
v -0.1 0.7 -0.4
v -0.1 0.7 -0.5
v -0.1 0.8 -0.4
v -0.1 0.8 -0.5
v -0.1 0.9 -0.5
v -0.1 0.9 -0.6
v -0.1 1 -0.5
v -0.1 1 -0.6
v 0 0.6 -0.4
v 0 0.6 -0.5
v 0 0.7 -0.4
v 0 0.7 -0.5
v 0 0.8 -0.5
v 0 0.8 -0.6
v 0 0.9 -0.5
v 0 0.9 -0.6
v 0 1.2 -0.6
v 0 1.2 -0.7
v 0 1.3 -0.6
v 0 1.3 -0.7
v 0.2 0.2 -0.4
v 0.2 0.2 -0.5
v 0.2 0.3 -0.4
v 0.2 0.3 -0.5
v 0.2 0.5 -0.4
v 0.2 0.5 -0.5
v 0.2 0.6 -0.4
v 0.2 0.6 -0.5
v 0.2 0.7 -0.5
v 0.2 0.7 -0.6
v 0.2 0.8 -0.5
v 0.2 0.8 -0.6
v 0.3 0.6 -0.5
v 0.3 0.6 -0.6
v 0.3 0.7 -0.5
v 0.3 0.7 -0.6
v 0.4 0.2 -0.6
v 0.4 0.2 -0.7
v 0.4 0.3 -0.6
v 0.4 0.3 -0.7
v 0.4 1.2 -0.6
v 0.4 1.2 -0.7
v 0.4 1.3 -0.6
v 0.4 1.3 -0.7
v 0.6 0.2 -0.3
v 0.6 0.2 -0.4
v 0.6 0.3 -0.3
v 0.6 0.3 -0.4
v 0.6 0.3 -0.5
v 0.6 0.5 -0.4
v 0.6 0.5 -0.5
v 0.6 1.1 -0.6
v 0.6 1.1 -0.7
v 0.6 1.2 -0.6
v 0.6 1.2 -0.7
v 0.7 0.2 -0.4
v 0.7 0.2 -0.5
v 0.7 0.3 -0.4
v 0.7 0.3 -0.5
v 0.8 0 0.8
v 0.8 0 -0.8
v 0.8 0.2 0.8
v 0.8 0.2 -0.5
v 0.8 0.2 -0.8
v 0.8 0.3 -0.5
v 0.8 0.3 -0.6
v 0.8 0.4 -0.6
v 0.8 0.4 -0.8
v 0.8 0.5 -0.5
v 0.8 0.5 -0.6
v 0.8 0.8 -0.5
v 0.8 0.8 -0.6
v 0.8 0.9 -0.6
v 0.8 0.9 -0.7
v 0.8 1 -0.7
v 0.8 1 -0.8
v 0.8 1.2 -0.6
v 0.8 1.2 -0.7
v 0.8 1.6 -0.7
v 0.8 1.6 -0.8
v -0.8 0 0.8
v -0.8 0.2 0.8
v 0.8 0 0.8
v 0.8 0.2 0.8
v 0.5 0.2 -0.3
v 0.5 0.3 -0.3
v 0.6 0.2 -0.3
v 0.6 0.3 -0.3
v -0.7 0.2 -0.4
v -0.7 0.3 -0.4
v -0.6 0.3 -0.4
v -0.6 0.4 -0.4
v -0.5 0.2 -0.4
v -0.5 0.3 -0.4
v -0.5 0.4 -0.4
v -0.5 0.5 -0.4
v -0.4 0.4 -0.4
v -0.4 0.5 -0.4
v -0.4 0.6 -0.4
v -0.3 0.2 -0.4
v -0.3 0.3 -0.4
v -0.3 0.4 -0.4
v -0.3 0.5 -0.4
v -0.2 0.3 -0.4
v -0.2 0.4 -0.4
v -0.2 0.6 -0.4
v -0.2 0.8 -0.4
v -0.1 0.3 -0.4
v -0.1 0.5 -0.4
v -0.1 0.7 -0.4
v -0.1 0.8 -0.4
v 0 0.2 -0.4
v 0 0.3 -0.4
v 0 0.4 -0.4
v 0 0.5 -0.4
v 0 0.6 -0.4
v 0 0.7 -0.4
v 0.1 0.4 -0.4
v 0.1 0.5 -0.4
v 0.2 0.2 -0.4
v 0.2 0.3 -0.4
v 0.2 0.5 -0.4
v 0.2 0.6 -0.4
v 0.3 0.2 -0.4
v 0.3 0.3 -0.4
v 0.4 0.2 -0.4
v 0.4 0.3 -0.4
v 0.4 0.4 -0.4
v 0.4 0.5 -0.4
v 0.5 0.2 -0.4
v 0.5 0.3 -0.4
v 0.5 0.4 -0.4
v 0.6 0.2 -0.4
v 0.6 0.3 -0.4
v 0.6 0.5 -0.4
v 0.7 0.2 -0.4
v 0.7 0.3 -0.4
v -0.8 0.2 -0.5
v -0.8 0.3 -0.5
v -0.8 0.6 -0.5
v -0.7 0.2 -0.5
v -0.7 0.3 -0.5
v -0.7 0.4 -0.5
v -0.7 0.6 -0.5
v -0.7 0.8 -0.5
v -0.6 0.3 -0.5
v -0.6 0.4 -0.5
v -0.6 0.5 -0.5
v -0.5 0.4 -0.5
v -0.5 0.5 -0.5
v -0.5 0.8 -0.5
v -0.5 0.9 -0.5
v -0.4 0.5 -0.5
v -0.4 0.6 -0.5
v -0.4 0.9 -0.5
v -0.4 1 -0.5
v -0.3 1 -0.5
v -0.3 1.1 -0.5
v -0.2 0.6 -0.5
v -0.2 0.8 -0.5
v -0.2 1 -0.5
v -0.2 1.1 -0.5
v -0.1 0.7 -0.5
v -0.1 0.8 -0.5
v -0.1 0.9 -0.5
v -0.1 1 -0.5
v 0 0.6 -0.5
v 0 0.7 -0.5
v 0 0.8 -0.5
v 0 0.9 -0.5
v 0.1 0.6 -0.5
v 0.1 0.7 -0.5
v 0.2 0.2 -0.5
v 0.2 0.3 -0.5
v 0.2 0.5 -0.5
v 0.2 0.6 -0.5
v 0.2 0.7 -0.5
v 0.2 0.8 -0.5
v 0.3 0.2 -0.5
v 0.3 0.3 -0.5
v 0.3 0.6 -0.5
v 0.3 0.7 -0.5
v 0.4 0.3 -0.5
v 0.4 0.4 -0.5
v 0.4 0.5 -0.5
v 0.4 0.6 -0.5
v 0.4 0.7 -0.5
v 0.5 0.7 -0.5
v 0.5 0.8 -0.5
v 0.6 0.3 -0.5
v 0.6 0.5 -0.5
v 0.7 0.2 -0.5
v 0.7 0.3 -0.5
v 0.8 0.2 -0.5
v 0.8 0.3 -0.5
v 0.8 0.5 -0.5
v 0.8 0.8 -0.5
v -0.8 0.6 -0.6
v -0.8 0.9 -0.6
v -0.8 1.1 -0.6
v -0.7 0.6 -0.6
v -0.7 0.8 -0.6
v -0.7 0.9 -0.6
v -0.7 1 -0.6
v -0.7 1.1 -0.6
v -0.7 1.3 -0.6
v -0.5 0.8 -0.6
v -0.5 0.9 -0.6
v -0.5 1 -0.6
v -0.5 1.1 -0.6
v -0.5 1.3 -0.6
v -0.5 1.4 -0.6
v -0.4 0.9 -0.6
v -0.4 1 -0.6
v -0.3 1 -0.6
v -0.3 1.1 -0.6
v -0.3 1.2 -0.6
v -0.2 1 -0.6
v -0.2 1.1 -0.6
v -0.2 1.3 -0.6
v -0.2 1.4 -0.6
v -0.1 0.9 -0.6
v -0.1 1 -0.6
v -0.1 1.2 -0.6
v 0 0.8 -0.6
v 0 0.9 -0.6
v 0 1 -0.6
v 0 1.2 -0.6
v 0 1.3 -0.6
v 0.1 1.2 -0.6
v 0.1 1.3 -0.6
v 0.2 0.7 -0.6
v 0.2 0.8 -0.6
v 0.3 0.6 -0.6
v 0.3 0.7 -0.6
v 0.3 0.8 -0.6
v 0.3 0.9 -0.6
v 0.4 0.6 -0.6
v 0.4 0.7 -0.6
v 0.4 1.2 -0.6
v 0.4 1.3 -0.6
v 0.5 0.7 -0.6
v 0.5 0.8 -0.6
v 0.6 0.8 -0.6
v 0.6 0.9 -0.6
v 0.6 1.1 -0.6
v 0.6 1.2 -0.6
v 0.7 1.1 -0.6
v 0.7 1.2 -0.6
v 0.8 0.8 -0.6
v 0.8 0.9 -0.6
v 0.8 1.2 -0.6
v -0.8 1.1 -0.7
v -0.8 1.2 -0.7
v -0.8 1.6 -0.7
v -0.7 0.2 -0.7
v -0.7 0.3 -0.7
v -0.7 1.1 -0.7
v -0.7 1.2 -0.7
v -0.7 1.3 -0.7
v -0.5 1.3 -0.7
v -0.5 1.4 -0.7
v -0.2 1.3 -0.7
v -0.2 1.4 -0.7
v -0.1 1.3 -0.7
v -0.1 1.4 -0.7
v 0 1.2 -0.7
v 0 1.3 -0.7
v 0.1 0.2 -0.7
v 0.1 0.3 -0.7
v 0.1 1.2 -0.7
v 0.1 1.3 -0.7
v 0.4 0.2 -0.7
v 0.4 0.3 -0.7
v 0.4 1.2 -0.7
v 0.4 1.3 -0.7
v 0.5 0.2 -0.7
v 0.5 0.3 -0.7
v 0.6 1.1 -0.7
v 0.6 1.2 -0.7
v 0.6 1.3 -0.7
v 0.7 1.1 -0.7
v 0.7 1.2 -0.7
v 0.8 1.2 -0.7
v 0.8 1.6 -0.7
v -0.7 0.2 -0.5
v -0.7 0.3 -0.5
v -0.5 0.2 -0.5
v -0.5 0.3 -0.5
v -0.3 0.2 -0.5
v -0.3 0.3 -0.5
v 0 0.2 -0.5
v 0 0.3 -0.5
v 0.1 0.2 -0.5
v 0.1 0.3 -0.5
v 0.4 0.2 -0.6
v 0.4 0.3 -0.6
v 0.5 0.2 -0.6
v 0.5 0.3 -0.6
v -0.8 0 -0.8
v -0.8 0.2 -0.8
v -0.8 0.6 -0.8
v -0.8 1.2 -0.8
v -0.8 1.6 -0.8
v -0.7 0.2 -0.8
v -0.7 0.3 -0.8
v -0.7 0.5 -0.8
v -0.7 0.6 -0.8
v -0.7 1.2 -0.8
v -0.3 0.6 -0.8
v -0.3 0.7 -0.8
v -0.2 0.5 -0.8
v -0.2 0.6 -0.8
v -0.2 0.7 -0.8
v -0.2 0.8 -0.8
v -0.2 0.9 -0.8
v -0.2 1.3 -0.8
v -0.2 1.4 -0.8
v -0.1 0.5 -0.8
v -0.1 0.6 -0.8
v -0.1 0.7 -0.8
v -0.1 0.8 -0.8
v -0.1 0.9 -0.8
v -0.1 1.3 -0.8
v -0.1 1.4 -0.8
v 0 0.5 -0.8
v 0 0.6 -0.8
v 0 0.7 -0.8
v 0 0.8 -0.8
v 0 0.9 -0.8
v 0 1.2 -0.8
v 0 1.3 -0.8
v 0.1 0.5 -0.8
v 0.1 0.6 -0.8
v 0.1 0.7 -0.8
v 0.1 0.8 -0.8
v 0.1 0.9 -0.8
v 0.1 1.2 -0.8
v 0.1 1.3 -0.8
v 0.2 0.6 -0.8
v 0.2 0.7 -0.8
v 0.4 1.2 -0.8
v 0.4 1.3 -0.8
v 0.6 0.5 -0.8
v 0.6 1.2 -0.8
v 0.6 1.3 -0.8
v 0.7 0.2 -0.8
v 0.7 0.3 -0.8
v 0.7 0.4 -0.8
v 0.7 1 -0.8
v 0.7 1.2 -0.8
v 0.8 0 -0.8
v 0.8 0.2 -0.8
v 0.8 0.4 -0.8
v 0.8 1 -0.8
v 0.8 1.6 -0.8
v -0.8 0 0.8
v 0.8 0 0.8
v -0.8 0 -0.8
v 0.8 0 -0.8
v -0.7 0.3 -0.5
v -0.5 0.3 -0.5
v -0.3 0.3 -0.5
v 0 0.3 -0.5
v 0.1 0.3 -0.5
v -0.7 0.3 -0.6
v 0.4 0.3 -0.6
v 0.5 0.3 -0.6
v -0.7 0.3 -0.7
v 0.1 0.3 -0.7
v 0.4 0.3 -0.7
v 0.5 0.3 -0.7
v -0.8 0.2 0.8
v 0.8 0.2 0.8
v 0.5 0.2 -0.3
v 0.6 0.2 -0.3
v -0.7 0.2 -0.4
v -0.5 0.2 -0.4
v -0.3 0.2 -0.4
v 0 0.2 -0.4
v 0.2 0.2 -0.4
v 0.3 0.2 -0.4
v 0.4 0.2 -0.4
v 0.5 0.2 -0.4
v 0.6 0.2 -0.4
v 0.7 0.2 -0.4
v -0.8 0.2 -0.5
v -0.7 0.2 -0.5
v -0.5 0.2 -0.5
v -0.3 0.2 -0.5
v 0 0.2 -0.5
v 0.1 0.2 -0.5
v 0.2 0.2 -0.5
v 0.3 0.2 -0.5
v 0.7 0.2 -0.5
v 0.8 0.2 -0.5
v -0.7 0.2 -0.6
v 0.4 0.2 -0.6
v 0.5 0.2 -0.6
v -0.7 0.2 -0.7
v 0.1 0.2 -0.7
v 0.4 0.2 -0.7
v 0.5 0.2 -0.7
v 0.5 0.3 -0.3
v 0.6 0.3 -0.3
v -0.7 0.3 -0.4
v -0.6 0.3 -0.4
v 0.3 0.3 -0.4
v 0.4 0.3 -0.4
v 0.5 0.3 -0.4
v 0.6 0.3 -0.4
v 0.7 0.3 -0.4
v -0.7 0.3 -0.5
v -0.6 0.3 -0.5
v 0.3 0.3 -0.5
v 0.4 0.3 -0.5
v 0.6 0.3 -0.5
v 0.7 0.3 -0.5
v -0.6 0.4 -0.4
v -0.5 0.4 -0.4
v -0.6 0.4 -0.5
v -0.5 0.4 -0.5
v -0.5 0.5 -0.4
v -0.4 0.5 -0.4
v 0.4 0.5 -0.4
v 0.6 0.5 -0.4
v -0.5 0.5 -0.5
v -0.4 0.5 -0.5
v 0.4 0.5 -0.5
v 0.6 0.5 -0.5
v -0.4 0.6 -0.4
v -0.2 0.6 -0.4
v 0 0.6 -0.4
v 0.2 0.6 -0.4
v -0.8 0.6 -0.5
v -0.7 0.6 -0.5
v -0.4 0.6 -0.5
v -0.2 0.6 -0.5
v 0 0.6 -0.5
v 0.1 0.6 -0.5
v 0.2 0.6 -0.5
v 0.3 0.6 -0.5
v 0.4 0.6 -0.5
v -0.8 0.6 -0.6
v -0.7 0.6 -0.6
v 0.3 0.6 -0.6
v 0.4 0.6 -0.6
v -0.1 0.7 -0.4
v 0 0.7 -0.4
v -0.1 0.7 -0.5
v 0 0.7 -0.5
v 0.2 0.7 -0.5
v 0.3 0.7 -0.5
v 0.4 0.7 -0.5
v 0.5 0.7 -0.5
v 0.2 0.7 -0.6
v 0.3 0.7 -0.6
v 0.4 0.7 -0.6
v 0.5 0.7 -0.6
v -0.2 0.8 -0.4
v -0.1 0.8 -0.4
v -0.7 0.8 -0.5
v -0.5 0.8 -0.5
v -0.2 0.8 -0.5
v -0.1 0.8 -0.5
v 0 0.8 -0.5
v 0.2 0.8 -0.5
v 0.5 0.8 -0.5
v 0.8 0.8 -0.5
v -0.7 0.8 -0.6
v -0.5 0.8 -0.6
v 0 0.8 -0.6
v 0.2 0.8 -0.6
v 0.5 0.8 -0.6
v 0.6 0.8 -0.6
v 0.8 0.8 -0.6
v -0.5 0.9 -0.5
v -0.4 0.9 -0.5
v -0.1 0.9 -0.5
v 0 0.9 -0.5
v -0.5 0.9 -0.6
v -0.4 0.9 -0.6
v -0.1 0.9 -0.6
v 0 0.9 -0.6
v -0.4 1 -0.5
v -0.3 1 -0.5
v -0.2 1 -0.5
v -0.1 1 -0.5
v -0.4 1 -0.6
v -0.3 1 -0.6
v -0.2 1 -0.6
v -0.1 1 -0.6
v -0.3 1.1 -0.5
v -0.2 1.1 -0.5
v -0.8 1.1 -0.6
v -0.7 1.1 -0.6
v -0.3 1.1 -0.6
v -0.2 1.1 -0.6
v 0.6 1.1 -0.6
v 0.7 1.1 -0.6
v -0.8 1.1 -0.7
v -0.7 1.1 -0.7
v 0.6 1.1 -0.7
v 0.7 1.1 -0.7
v 0 1.2 -0.6
v 0.1 1.2 -0.6
v 0.4 1.2 -0.6
v 0.6 1.2 -0.6
v 0.7 1.2 -0.6
v 0.8 1.2 -0.6
v 0 1.2 -0.7
v 0.1 1.2 -0.7
v 0.4 1.2 -0.7
v 0.6 1.2 -0.7
v 0.7 1.2 -0.7
v 0.8 1.2 -0.7
v -0.7 1.3 -0.6
v -0.5 1.3 -0.6
v -0.2 1.3 -0.6
v 0 1.3 -0.6
v 0.1 1.3 -0.6
v 0.4 1.3 -0.6
v -0.7 1.3 -0.7
v -0.5 1.3 -0.7
v -0.2 1.3 -0.7
v -0.1 1.3 -0.7
v 0 1.3 -0.7
v 0.1 1.3 -0.7
v 0.4 1.3 -0.7
v -0.5 1.4 -0.6
v -0.2 1.4 -0.6
v -0.5 1.4 -0.7
v -0.2 1.4 -0.7
v -0.8 1.6 -0.7
v 0.8 1.6 -0.7
v -0.8 1.6 -0.8
v 0.8 1.6 -0.8

# faces
f 3/4/1 2/4/1 1/4/1
f 4/4/1 2/4/1 3/4/1
f 5/4/1 2/4/1 4/4/1
f 6/4/1 2/4/1 5/4/1
f 7/2/1 5/2/1 4/2/1
f 8/1/1 6/1/1 5/1/1
f 8/2/1 5/2/1 7/2/1
f 9/1/1 6/1/1 8/1/1
f 10/3/1 8/3/1 7/3/1
f 11/2/1 9/2/1 8/2/1
f 11/3/1 8/3/1 10/3/1
f 12/1/1 6/1/1 9/1/1
f 12/2/1 9/2/1 11/2/1
f 13/1/1 6/1/1 12/1/1
f 14/2/1 12/2/1 11/2/1
f 14/2/1 13/2/1 12/2/1
f 15/2/1 13/2/1 14/2/1
f 16/3/1 15/3/1 14/3/1
f 17/2/1 13/2/1 15/2/1
f 17/3/1 15/3/1 16/3/1
f 18/2/1 13/2/1 17/2/1
f 19/2/1 13/2/1 18/2/1
f 20/3/1 19/3/1 18/3/1
f 21/3/1 19/3/1 20/3/1
f 24/2/1 23/2/1 22/2/1
f 25/2/1 23/2/1 24/2/1
f 28/3/1 27/3/1 26/3/1
f 29/3/1 27/3/1 28/3/1
f 32/3/1 31/3/1 30/3/1
f 33/3/1 32/3/1 30/3/1
f 34/3/1 32/3/1 33/3/1
f 37/2/1 36/2/1 35/2/1
f 38/2/1 36/2/1 37/2/1
f 41/3/1 40/3/1 39/3/1
f 42/3/1 40/3/1 41/3/1
f 45/3/1 44/3/1 43/3/1
f 46/3/1 44/3/1 45/3/1
f 49/3/1 48/3/1 47/3/1
f 50/3/1 48/3/1 49/3/1
f 53/3/1 52/3/1 51/3/1
f 54/3/1 52/3/1 53/3/1
f 57/3/1 56/3/1 55/3/1
f 58/3/1 56/3/1 57/3/1
f 61/3/1 60/3/1 59/3/1
f 62/3/1 60/3/1 61/3/1
f 65/3/1 64/3/1 63/3/1
f 66/3/1 64/3/1 65/3/1
f 69/3/1 68/3/1 67/3/1
f 70/3/1 68/3/1 69/3/1
f 73/3/1 72/3/1 71/3/1
f 74/3/1 72/3/1 73/3/1
f 77/3/1 76/3/1 75/3/1
f 78/3/1 76/3/1 77/3/1
f 81/2/1 80/2/1 79/2/1
f 82/2/1 80/2/1 81/2/1
f 83/3/1 82/3/1 81/3/1
f 84/3/1 82/3/1 83/3/1
f 87/3/1 86/3/1 85/3/1
f 88/3/1 86/3/1 87/3/1
f 93/2/1 90/2/1 89/2/1
f 94/2/1 90/2/1 93/2/1
f 95/3/1 92/3/1 91/3/1
f 96/3/1 92/3/1 95/3/1
f 99/3/1 98/3/1 97/3/1
f 100/3/1 98/3/1 99/3/1
f 103/3/1 102/3/1 101/3/1
f 104/3/1 102/3/1 103/3/1
f 105/2/2 106/2/2 108/2/2
f 106/1/2 107/1/2 109/1/2
f 108/2/2 106/2/2 109/2/2
f 109/1/2 107/1/2 110/1/2
f 111/3/2 112/3/2 113/3/2
f 113/3/2 112/3/2 114/3/2
f 115/3/2 116/3/2 117/3/2
f 117/3/2 116/3/2 118/3/2
f 119/3/2 120/3/2 121/3/2
f 121/3/2 120/3/2 122/3/2
f 123/3/2 124/3/2 125/3/2
f 125/3/2 124/3/2 126/3/2
f 127/3/2 128/3/2 129/3/2
f 129/3/2 128/3/2 130/3/2
f 131/3/2 132/3/2 133/3/2
f 133/3/2 132/3/2 134/3/2
f 135/3/2 136/3/2 137/3/2
f 137/3/2 136/3/2 138/3/2
f 139/1/2 140/1/2 141/1/2
f 141/1/2 140/1/2 142/1/2
f 141/2/2 142/2/2 143/2/2
f 143/2/2 142/2/2 144/2/2
f 143/3/2 144/3/2 145/3/2
f 145/3/2 144/3/2 146/3/2
f 147/3/2 148/3/2 149/3/2
f 149/3/2 148/3/2 150/3/2
f 151/3/2 152/3/2 153/3/2
f 153/3/2 152/3/2 154/3/2
f 155/3/2 156/3/2 157/3/2
f 157/3/2 156/3/2 158/3/2
f 159/3/2 160/3/2 161/3/2
f 161/3/2 160/3/2 162/3/2
f 163/2/2 164/2/2 165/2/2
f 165/2/2 164/2/2 166/2/2
f 166/3/2 167/3/2 168/3/2
f 168/3/2 167/3/2 169/3/2
f 170/3/2 171/3/2 172/3/2
f 172/3/2 171/3/2 173/3/2
f 174/2/2 175/2/2 176/2/2
f 176/2/2 175/2/2 177/2/2
f 178/4/2 179/4/2 180/4/2
f 180/4/2 179/4/2 181/4/2
f 181/4/2 179/4/2 182/4/2
f 181/1/2 182/1/2 183/1/2
f 183/1/2 182/1/2 184/1/2
f 183/2/2 184/2/2 185/2/2
f 184/1/2 182/1/2 185/1/2
f 185/1/2 182/1/2 186/1/2
f 183/2/2 185/2/2 187/2/2
f 185/2/2 186/2/2 187/2/2
f 187/2/2 186/2/2 188/2/2
f 187/3/2 188/3/2 189/3/2
f 188/2/2 186/2/2 190/2/2
f 189/3/2 188/3/2 190/3/2
f 190/2/2 186/2/2 191/2/2
f 191/2/2 186/2/2 192/2/2
f 191/3/2 192/3/2 193/3/2
f 192/2/2 186/2/2 193/2/2
f 193/2/2 186/2/2 194/2/2
f 191/3/2 193/3/2 195/3/2
f 193/3/2 194/3/2 195/3/2
f 195/3/2 194/3/2 196/3/2
f 196/3/2 194/3/2 197/3/2
f 197/3/2 194/3/2 198/3/2
f 201/4/3 200/4/3 199/4/3
f 202/4/3 200/4/3 201/4/3
f 205/2/3 204/2/3 203/2/3
f 206/2/3 204/2/3 205/2/3
f 209/2/3 208/2/3 207/2/3
f 211/2/3 209/2/3 207/2/3
f 211/2/3 210/2/3 209/2/3
f 212/2/3 210/2/3 211/2/3
f 213/2/3 210/2/3 212/2/3
f 215/2/3 213/2/3 212/2/3
f 215/3/3 214/3/3 213/3/3
f 216/3/3 214/3/3 215/3/3
f 218/1/3 212/1/3 211/1/3
f 219/2/3 215/2/3 212/2/3
f 219/1/3 212/1/3 218/1/3
f 219/2/3 216/2/3 215/2/3
f 220/2/3 216/2/3 219/2/3
f 221/3/3 217/3/3 216/3/3
f 221/2/3 216/2/3 220/2/3
f 222/2/3 220/2/3 219/2/3
f 222/2/3 219/2/3 218/2/3
f 223/3/3 221/3/3 220/3/3
f 223/2/3 220/2/3 222/2/3
f 224/3/3 217/3/3 221/3/3
f 224/3/3 221/3/3 223/3/3
f 226/3/3 223/3/3 222/3/3
f 226/3/3 225/3/3 224/3/3
f 226/3/3 224/3/3 223/3/3
f 226/2/3 222/2/3 218/2/3
f 227/3/3 225/3/3 226/3/3
f 228/3/3 225/3/3 227/3/3
f 229/3/3 225/3/3 228/3/3
f 230/2/3 226/2/3 218/2/3
f 230/2/3 227/2/3 226/2/3
f 231/2/3 227/2/3 230/2/3
f 232/2/3 227/2/3 231/2/3
f 233/3/3 228/3/3 227/3/3
f 233/2/3 227/2/3 232/2/3
f 234/3/3 228/3/3 233/3/3
f 235/3/3 228/3/3 234/3/3
f 236/2/3 232/2/3 231/2/3
f 236/3/3 233/3/3 232/3/3
f 236/3/3 234/3/3 233/3/3
f 237/3/3 234/3/3 236/3/3
f 238/1/3 231/1/3 230/1/3
f 239/2/3 236/2/3 231/2/3
f 239/1/3 231/1/3 238/1/3
f 239/2/3 237/2/3 236/2/3
f 240/3/3 234/3/3 237/3/3
f 240/2/3 237/2/3 239/2/3
f 241/3/3 234/3/3 240/3/3
f 244/3/3 243/3/3 242/3/3
f 245/3/3 243/3/3 244/3/3
f 248/2/3 245/2/3 244/2/3
f 248/2/3 246/2/3 245/2/3
f 249/2/3 246/2/3 248/2/3
f 250/3/3 247/3/3 246/3/3
f 250/2/3 246/2/3 249/2/3
f 252/3/3 250/3/3 249/3/3
f 253/3/3 247/3/3 250/3/3
f 253/3/3 250/3/3 252/3/3
f 254/2/3 252/2/3 251/2/3
f 255/2/3 252/2/3 254/2/3
f 259/2/3 257/2/3 256/2/3
f 260/3/3 258/3/3 257/3/3
f 260/2/3 257/2/3 259/2/3
f 261/3/3 258/3/3 260/3/3
f 262/3/3 258/3/3 261/3/3
f 264/2/3 261/2/3 260/2/3
f 265/3/3 263/3/3 262/3/3
f 265/2/3 261/2/3 264/2/3
f 265/3/3 262/3/3 261/3/3
f 266/3/3 263/3/3 265/3/3
f 267/2/3 266/2/3 265/2/3
f 268/3/3 263/3/3 266/3/3
f 268/2/3 266/2/3 267/2/3
f 269/3/3 263/3/3 268/3/3
f 271/3/3 270/3/3 269/3/3
f 271/3/3 269/3/3 268/3/3
f 272/3/3 270/3/3 271/3/3
f 273/3/3 270/3/3 272/3/3
f 275/3/3 274/3/3 273/3/3
f 275/3/3 273/3/3 272/3/3
f 277/3/3 275/3/3 272/3/3
f 277/3/3 276/3/3 275/3/3
f 278/3/3 276/3/3 277/3/3
f 279/3/3 276/3/3 278/3/3
f 280/3/3 276/3/3 279/3/3
f 282/3/3 279/3/3 278/3/3
f 283/3/3 279/3/3 282/3/3
f 284/3/3 279/3/3 283/3/3
f 286/3/3 282/3/3 281/3/3
f 286/3/3 283/3/3 282/3/3
f 287/3/3 283/3/3 286/3/3
f 288/3/3 283/3/3 287/3/3
f 289/2/3 286/2/3 285/2/3
f 290/3/3 287/3/3 286/3/3
f 290/2/3 286/2/3 289/2/3
f 294/3/3 290/3/3 289/3/3
f 295/3/3 287/3/3 290/3/3
f 295/3/3 290/3/3 294/3/3
f 296/3/3 287/3/3 295/3/3
f 297/2/3 293/2/3 292/2/3
f 297/2/3 292/2/3 291/2/3
f 298/2/3 293/2/3 297/2/3
f 299/3/3 294/3/3 293/3/3
f 299/3/3 295/3/3 294/3/3
f 300/3/3 295/3/3 299/3/3
f 301/2/3 293/2/3 298/2/3
f 302/2/3 293/2/3 301/2/3
f 303/3/3 299/3/3 293/3/3
f 303/2/3 293/2/3 302/2/3
f 304/3/3 299/3/3 303/3/3
f 306/3/3 305/3/3 304/3/3
f 306/3/3 304/3/3 303/3/3
f 309/3/3 306/3/3 303/3/3
f 309/3/3 307/3/3 306/3/3
f 311/2/3 309/2/3 308/2/3
f 312/1/3 311/1/3 310/1/3
f 313/2/3 309/2/3 311/2/3
f 313/1/3 311/1/3 312/1/3
f 314/3/3 307/3/3 309/3/3
f 314/2/3 309/2/3 313/2/3
f 315/3/3 307/3/3 314/3/3
f 319/2/3 317/2/3 316/2/3
f 320/2/3 317/2/3 319/2/3
f 321/3/3 318/3/3 317/3/3
f 321/2/3 317/2/3 320/2/3
f 322/3/3 318/3/3 321/3/3
f 323/3/3 318/3/3 322/3/3
f 325/2/3 321/2/3 320/2/3
f 325/2/3 322/2/3 321/2/3
f 326/2/3 322/2/3 325/2/3
f 327/3/3 324/3/3 323/3/3
f 327/2/3 322/2/3 326/2/3
f 327/3/3 323/3/3 322/3/3
f 328/3/3 324/3/3 327/3/3
f 329/3/3 324/3/3 328/3/3
f 331/2/3 327/2/3 326/2/3
f 331/2/3 328/2/3 327/2/3
f 332/2/3 328/2/3 331/2/3
f 333/2/3 328/2/3 332/2/3
f 334/3/3 330/3/3 329/3/3
f 334/2/3 328/2/3 333/2/3
f 334/3/3 329/3/3 328/3/3
f 335/3/3 330/3/3 334/3/3
f 337/2/3 335/2/3 334/2/3
f 338/3/3 330/3/3 335/3/3
f 339/3/3 330/3/3 338/3/3
f 341/2/3 337/2/3 336/2/3
f 342/2/3 335/2/3 337/2/3
f 342/3/3 338/3/3 335/3/3
f 342/2/3 337/2/3 341/2/3
f 344/2/3 341/2/3 340/2/3
f 345/3/3 342/3/3 341/3/3
f 345/2/3 341/2/3 344/2/3
f 346/3/3 338/3/3 342/3/3
f 346/3/3 342/3/3 345/3/3
f 347/3/3 338/3/3 346/3/3
f 348/3/3 345/3/3 344/3/3
f 348/3/3 346/3/3 345/3/3
f 351/2/3 344/2/3 343/2/3
f 353/2/3 351/2/3 350/2/3
f 354/2/3 344/2/3 351/2/3
f 354/2/3 351/2/3 353/2/3
f 355/3/3 349/3/3 348/3/3
f 355/2/3 344/2/3 354/2/3
f 355/3/3 348/3/3 344/3/3
f 356/2/3 354/2/3 353/2/3
f 356/2/3 353/2/3 352/2/3
f 357/2/3 354/2/3 356/2/3
f 358/3/3 349/3/3 355/3/3
f 358/3/3 355/3/3 354/3/3
f 359/3/3 349/3/3 358/3/3
f 360/2/3 354/2/3 357/2/3
f 361/3/3 358/3/3 354/3/3
f 361/2/3 354/2/3 360/2/3
f 362/3/3 358/3/3 361/3/3
f 363/3/3 358/3/3 362/3/3
f 364/3/3 358/3/3 363/3/3
f 365/3/3 358/3/3 364/3/3
f 366/3/3 364/3/3 363/3/3
f 368/2/3 363/2/3 362/2/3
f 369/3/3 367/3/3 366/3/3
f 369/2/3 363/2/3 368/2/3
f 369/3/3 366/3/3 363/3/3
f 370/3/3 367/3/3 369/3/3
f 376/2/3 372/2/3 371/2/3
f 377/3/3 373/3/3 372/3/3
f 377/2/3 372/2/3 376/2/3
f 378/3/3 373/3/3 377/3/3
f 379/3/3 373/3/3 378/3/3
f 380/3/3 373/3/3 379/3/3
f 382/3/3 373/3/3 380/3/3
f 383/2/3 382/2/3 381/2/3
f 384/3/3 373/3/3 382/3/3
f 384/2/3 382/2/3 383/2/3
f 386/3/3 384/3/3 383/3/3
f 387/3/3 375/3/3 374/3/3
f 388/3/3 375/3/3 387/3/3
f 389/2/3 386/2/3 385/2/3
f 390/3/3 384/3/3 386/3/3
f 390/2/3 386/2/3 389/2/3
f 394/3/3 384/3/3 390/3/3
f 395/3/3 392/3/3 391/3/3
f 396/3/3 392/3/3 395/3/3
f 398/2/3 394/2/3 393/2/3
f 399/3/3 384/3/3 394/3/3
f 399/2/3 394/2/3 398/2/3
f 400/2/3 398/2/3 397/2/3
f 401/3/3 399/3/3 398/3/3
f 401/2/3 398/2/3 400/2/3
f 402/3/3 399/3/3 401/3/3
f 403/3/3 373/3/3 384/3/3
f 403/3/3 399/3/3 402/3/3
f 403/3/3 384/3/3 399/3/3
f 404/2/4 405/2/4 406/2/4
f 406/2/4 405/2/4 407/2/4
f 406/1/4 407/1/4 408/1/4
f 408/1/4 407/1/4 409/1/4
f 408/2/4 409/2/4 410/2/4
f 410/2/4 409/2/4 411/2/4
f 410/1/4 411/1/4 412/1/4
f 412/1/4 411/1/4 413/1/4
f 414/2/4 415/2/4 416/2/4
f 416/2/4 415/2/4 417/2/4
f 418/4/4 419/4/4 423/4/4
f 419/1/4 420/1/4 423/1/4
f 423/1/4 420/1/4 424/1/4
f 424/1/4 420/1/4 425/1/4
f 420/2/4 421/2/4 426/2/4
f 425/1/4 420/1/4 426/1/4
f 421/3/4 422/3/4 427/3/4
f 426/2/4 421/2/4 427/2/4
f 425/3/4 426/3/4 428/3/4
f 426/3/4 427/3/4 428/3/4
f 428/3/4 427/3/4 429/3/4
f 424/2/4 425/2/4 430/2/4
f 425/3/4 428/3/4 430/3/4
f 428/2/4 429/2/4 431/2/4
f 430/3/4 428/3/4 431/3/4
f 429/3/4 427/3/4 432/3/4
f 431/2/4 429/2/4 432/2/4
f 432/3/4 427/3/4 433/3/4
f 433/3/4 427/3/4 434/3/4
f 427/3/4 422/3/4 435/3/4
f 434/3/4 427/3/4 435/3/4
f 435/3/4 422/3/4 436/3/4
f 430/2/4 431/2/4 437/2/4
f 424/2/4 430/2/4 437/2/4
f 431/3/4 432/3/4 438/3/4
f 437/2/4 431/2/4 438/2/4
f 432/3/4 433/3/4 438/3/4
f 438/3/4 433/3/4 439/3/4
f 433/2/4 434/2/4 440/2/4
f 439/3/4 433/3/4 440/3/4
f 434/3/4 435/3/4 441/3/4
f 440/2/4 434/2/4 441/2/4
f 435/2/4 436/2/4 442/2/4
f 441/3/4 435/3/4 442/3/4
f 436/3/4 422/3/4 443/3/4
f 442/2/4 436/2/4 443/2/4
f 424/2/4 437/2/4 444/2/4
f 437/3/4 438/3/4 444/3/4
f 438/2/4 439/2/4 445/2/4
f 444/3/4 438/3/4 445/3/4
f 441/3/4 442/3/4 446/3/4
f 445/2/4 439/2/4 446/2/4
f 440/3/4 441/3/4 446/3/4
f 442/3/4 443/3/4 446/3/4
f 439/3/4 440/3/4 446/3/4
f 446/3/4 443/3/4 447/3/4
f 447/3/4 443/3/4 448/3/4
f 448/3/4 443/3/4 449/3/4
f 449/3/4 443/3/4 450/3/4
f 424/2/4 444/2/4 451/2/4
f 444/2/4 445/2/4 451/2/4
f 445/3/4 446/3/4 452/3/4
f 451/2/4 445/2/4 452/2/4
f 446/3/4 447/3/4 452/3/4
f 452/3/4 447/3/4 453/3/4
f 447/2/4 448/2/4 454/2/4
f 453/3/4 447/3/4 454/3/4
f 448/3/4 449/3/4 455/3/4
f 454/2/4 448/2/4 455/2/4
f 449/2/4 450/2/4 456/2/4
f 455/3/4 449/3/4 456/3/4
f 450/3/4 443/3/4 457/3/4
f 456/2/4 450/2/4 457/2/4
f 452/2/4 453/2/4 458/2/4
f 451/3/4 452/3/4 458/3/4
f 455/3/4 456/3/4 459/3/4
f 458/2/4 453/2/4 459/2/4
f 454/3/4 455/3/4 459/3/4
f 456/3/4 457/3/4 459/3/4
f 453/3/4 454/3/4 459/3/4
f 458/3/4 459/3/4 460/3/4
f 459/3/4 457/3/4 460/3/4
f 457/3/4 443/3/4 461/3/4
f 460/3/4 457/3/4 461/3/4
f 451/3/4 458/3/4 462/3/4
f 458/3/4 460/3/4 462/3/4
f 424/2/4 451/2/4 462/2/4
f 460/2/4 461/2/4 463/2/4
f 462/3/4 460/3/4 463/3/4
f 461/3/4 443/3/4 464/3/4
f 463/2/4 461/2/4 464/2/4
f 418/4/4 423/4/4 465/4/4
f 423/3/4 424/3/4 465/3/4
f 462/2/4 463/2/4 466/2/4
f 465/3/4 424/3/4 466/3/4
f 424/2/4 462/2/4 466/2/4
f 466/2/4 463/2/4 467/2/4
f 467/2/4 463/2/4 468/2/4
f 463/3/4 464/3/4 469/3/4
f 468/2/4 463/2/4 469/2/4
f 418/4/4 465/4/4 470/4/4
f 465/1/4 466/1/4 471/1/4
f 470/4/4 465/4/4 471/4/4
f 466/1/4 467/1/4 471/1/4
f 467/2/4 468/2/4 472/2/4
f 471/1/4 467/1/4 472/1/4
f 468/3/4 469/3/4 473/3/4
f 472/2/4 468/2/4 473/2/4
f 469/3/4 464/3/4 474/3/4
f 473/3/4 469/3/4 474/3/4
f 443/3/4 422/3/4 474/3/4
f 464/3/4 443/3/4 474/3/4
f 477/4/5 476/4/5 475/4/5
f 478/4/5 476/4/5 477/4/5
f 484/2/5 480/2/5 479/2/5
f 484/2/5 483/2/5 482/2/5
f 484/2/5 482/2/5 481/2/5
f 484/2/5 481/2/5 480/2/5
f 487/2/5 483/2/5 484/2/5
f 488/2/5 483/2/5 487/2/5
f 489/2/5 486/2/5 485/2/5
f 490/2/5 486/2/5 489/2/5
f 491/4/6 492/4/6 493/4/6
f 493/4/6 492/4/6 494/4/6
f 491/4/6 493/4/6 495/4/6
f 495/4/6 493/4/6 496/4/6
f 496/4/6 493/4/6 497/4/6
f 497/4/6 493/4/6 498/4/6
f 498/4/6 493/4/6 499/4/6
f 499/4/6 493/4/6 500/4/6
f 500/4/6 493/4/6 501/4/6
f 501/4/6 493/4/6 502/4/6
f 494/4/6 492/4/6 503/4/6
f 503/4/6 492/4/6 504/4/6
f 491/4/6 495/4/6 505/4/6
f 505/4/6 495/4/6 506/4/6
f 499/4/6 500/4/6 511/4/6
f 511/4/6 500/4/6 512/4/6
f 504/4/6 492/4/6 513/4/6
f 513/4/6 492/4/6 514/4/6
f 509/4/6 510/4/6 515/4/6
f 506/4/6 507/4/6 515/4/6
f 508/4/6 509/4/6 515/4/6
f 507/4/6 508/4/6 515/4/6
f 515/4/6 510/4/6 518/4/6
f 518/4/6 510/4/6 519/4/6
f 516/4/6 517/4/6 520/4/6
f 520/4/6 517/4/6 521/4/6
f 522/2/6 523/2/6 528/2/6
f 528/2/6 523/2/6 529/2/6
f 524/2/6 525/2/6 531/2/6
f 531/2/6 525/2/6 532/2/6
f 526/3/6 527/3/6 533/3/6
f 533/3/6 527/3/6 534/3/6
f 529/2/6 530/2/6 535/2/6
f 535/2/6 530/2/6 536/2/6
f 537/2/6 538/2/6 539/2/6
f 539/2/6 538/2/6 540/2/6
f 541/3/6 542/3/6 545/3/6
f 545/3/6 542/3/6 546/3/6
f 543/3/6 544/3/6 547/3/6
f 547/3/6 544/3/6 548/3/6
f 549/3/6 550/3/6 555/3/6
f 555/3/6 550/3/6 556/3/6
f 551/3/6 552/3/6 557/3/6
f 557/3/6 552/3/6 558/3/6
f 558/3/6 552/3/6 559/3/6
f 553/3/6 554/3/6 562/3/6
f 562/3/6 554/3/6 563/3/6
f 560/3/6 561/3/6 564/3/6
f 564/3/6 561/3/6 565/3/6
f 566/3/6 567/3/6 568/3/6
f 568/3/6 567/3/6 569/3/6
f 570/3/6 571/3/6 574/3/6
f 574/3/6 571/3/6 575/3/6
f 572/3/6 573/3/6 576/3/6
f 576/3/6 573/3/6 577/3/6
f 578/3/6 579/3/6 582/3/6
f 582/3/6 579/3/6 583/3/6
f 580/3/6 581/3/6 588/3/6
f 588/3/6 581/3/6 589/3/6
f 584/3/6 585/3/6 590/3/6
f 590/3/6 585/3/6 591/3/6
f 586/3/6 587/3/6 592/3/6
f 592/3/6 587/3/6 593/3/6
f 593/3/6 587/3/6 594/3/6
f 595/3/6 596/3/6 599/3/6
f 599/3/6 596/3/6 600/3/6
f 597/3/6 598/3/6 601/3/6
f 601/3/6 598/3/6 602/3/6
f 603/3/6 604/3/6 607/3/6
f 607/3/6 604/3/6 608/3/6
f 605/3/6 606/3/6 609/3/6
f 609/3/6 606/3/6 610/3/6
f 611/3/6 612/3/6 615/3/6
f 615/3/6 612/3/6 616/3/6
f 613/3/6 614/3/6 619/3/6
f 619/3/6 614/3/6 620/3/6
f 617/3/6 618/3/6 621/3/6
f 621/3/6 618/3/6 622/3/6
f 623/3/6 624/3/6 629/3/6
f 629/3/6 624/3/6 630/3/6
f 625/3/6 626/3/6 631/3/6
f 631/3/6 626/3/6 632/3/6
f 627/3/6 628/3/6 633/3/6
f 633/3/6 628/3/6 634/3/6
f 635/3/6 636/3/6 641/3/6
f 641/3/6 636/3/6 642/3/6
f 637/3/6 638/3/6 643/3/6
f 643/3/6 638/3/6 644/3/6
f 644/3/6 638/3/6 645/3/6
f 639/3/6 640/3/6 646/3/6
f 646/3/6 640/3/6 647/3/6
f 648/3/6 649/3/6 650/3/6
f 650/3/6 649/3/6 651/3/6
f 652/3/6 653/3/6 654/3/6
f 654/3/6 653/3/6 655/3/6
