# MagicaVoxel @ Ephtracy

# group
o 

# material
mtllib Door.mtl
usemtl palette

# normals
vn -1 0 0
vn 1 0 0
vn 0 0 1
vn 0 0 -1
vn 0 -1 0
vn 0 1 0

# texcoords
vt 0.107422 0.5
vt 0.130859 0.5
vt 0.919922 0.5

# verts
v -0.4 0 -0.7
v -0.4 0 -0.8
v -0.4 1.5 -0.7
v -0.4 1.5 -0.8
v -0.3 0.7 -0.6
v -0.3 0.7 -0.7
v -0.3 0.8 -0.6
v -0.3 0.8 -0.7
v 0.3 0.7 -0.6
v 0.3 0.7 -0.7
v 0.3 0.8 -0.6
v 0.3 0.8 -0.7
v 0.4 0 -0.7
v 0.4 0 -0.8
v 0.4 1.5 -0.7
v 0.4 1.5 -0.8
v -0.3 0.7 -0.6
v -0.3 0.8 -0.6
v 0.3 0.7 -0.6
v 0.3 0.8 -0.6
v -0.4 0 -0.7
v -0.4 1.5 -0.7
v -0.3 0.7 -0.7
v -0.3 0.8 -0.7
v -0.3 1 -0.7
v -0.3 1.3 -0.7
v -0.2 1.1 -0.7
v -0.2 1.2 -0.7
v -0.1 1 -0.7
v -0.1 1.1 -0.7
v -0.1 1.2 -0.7
v -0.1 1.3 -0.7
v 0 1 -0.7
v 0 1.1 -0.7
v 0 1.2 -0.7
v 0 1.3 -0.7
v 0.1 1 -0.7
v 0.1 1.1 -0.7
v 0.2 1 -0.7
v 0.2 1.2 -0.7
v 0.3 0 -0.7
v 0.3 0.7 -0.7
v 0.3 0.8 -0.7
v 0.3 1 -0.7
v 0.3 1.3 -0.7
v 0.3 1.5 -0.7
v 0.4 0 -0.7
v 0.4 1.5 -0.7
v -0.4 0 -0.8
v -0.4 1.5 -0.8
v -0.3 0.7 -0.8
v -0.3 0.8 -0.8
v -0.3 1 -0.8
v -0.3 1.3 -0.8
v -0.2 1.1 -0.8
v -0.2 1.2 -0.8
v -0.1 1 -0.8
v -0.1 1.1 -0.8
v -0.1 1.2 -0.8
v -0.1 1.3 -0.8
v 0 1 -0.8
v 0 1.1 -0.8
v 0 1.2 -0.8
v 0 1.3 -0.8
v 0.1 1 -0.8
v 0.1 1.1 -0.8
v 0.2 1 -0.8
v 0.2 1.2 -0.8
v 0.3 0 -0.8
v 0.3 0.7 -0.8
v 0.3 0.8 -0.8
v 0.3 1 -0.8
v 0.3 1.3 -0.8
v 0.3 1.5 -0.8
v 0.4 0 -0.8
v 0.4 1.5 -0.8
v -0.4 0 -0.7
v 0.3 0 -0.7
v 0.4 0 -0.7
v -0.4 0 -0.8
v 0.3 0 -0.8
v 0.4 0 -0.8
v -0.3 0.7 -0.6
v 0.3 0.7 -0.6
v -0.3 0.7 -0.7
v 0.3 0.7 -0.7
v -0.3 0.8 -0.6
v 0.3 0.8 -0.6
v -0.3 0.8 -0.7
v 0.3 0.8 -0.7
v -0.4 1.5 -0.7
v 0.3 1.5 -0.7
v 0.4 1.5 -0.7
v -0.4 1.5 -0.8
v 0.3 1.5 -0.8
v 0.4 1.5 -0.8

# faces
f 3/2/1 2/2/1 1/2/1
f 4/2/1 2/2/1 3/2/1
f 7/3/1 6/3/1 5/3/1
f 8/3/1 6/3/1 7/3/1
f 9/3/2 10/3/2 11/3/2
f 11/3/2 10/3/2 12/3/2
f 13/1/2 14/1/2 15/1/2
f 15/1/2 14/1/2 16/1/2
f 19/3/3 18/3/3 17/3/3
f 20/3/3 18/3/3 19/3/3
f 23/2/3 22/2/3 21/2/3
f 24/2/3 22/2/3 23/2/3
f 25/2/3 22/2/3 24/2/3
f 26/2/3 22/2/3 25/2/3
f 27/3/3 26/3/3 25/3/3
f 28/3/3 26/3/3 27/3/3
f 29/2/3 25/2/3 24/2/3
f 29/3/3 27/3/3 25/3/3
f 30/2/3 28/2/3 27/2/3
f 30/3/3 27/3/3 29/3/3
f 31/3/3 26/3/3 28/3/3
f 31/2/3 28/2/3 30/2/3
f 32/2/3 22/2/3 26/2/3
f 32/3/3 26/3/3 31/3/3
f 33/2/3 30/2/3 29/2/3
f 33/2/3 29/2/3 24/2/3
f 34/3/3 31/3/3 30/3/3
f 34/2/3 30/2/3 33/2/3
f 35/2/3 32/2/3 31/2/3
f 35/3/3 31/3/3 34/3/3
f 36/2/3 22/2/3 32/2/3
f 36/2/3 32/2/3 35/2/3
f 37/2/3 33/2/3 24/2/3
f 37/3/3 34/3/3 33/3/3
f 38/2/3 35/2/3 34/2/3
f 38/3/3 34/3/3 37/3/3
f 39/2/3 37/2/3 24/2/3
f 39/2/3 38/2/3 37/2/3
f 40/2/3 35/2/3 38/2/3
f 40/2/3 38/2/3 39/2/3
f 40/3/3 36/3/3 35/3/3
f 41/2/3 23/2/3 21/2/3
f 42/2/3 23/2/3 41/2/3
f 43/2/3 39/2/3 24/2/3
f 44/3/3 40/3/3 39/3/3
f 44/2/3 39/2/3 43/2/3
f 45/3/3 36/3/3 40/3/3
f 45/3/3 40/3/3 44/3/3
f 45/2/3 22/2/3 36/2/3
f 46/2/3 22/2/3 45/2/3
f 47/1/3 44/1/3 43/1/3
f 47/1/3 42/1/3 41/1/3
f 47/1/3 46/1/3 45/1/3
f 47/1/3 45/1/3 44/1/3
f 47/1/3 43/1/3 42/1/3
f 48/1/3 46/1/3 47/1/3
f 49/2/4 50/2/4 51/2/4
f 51/2/4 50/2/4 52/2/4
f 52/2/4 50/2/4 53/2/4
f 53/2/4 50/2/4 54/2/4
f 53/3/4 54/3/4 55/3/4
f 55/3/4 54/3/4 56/3/4
f 52/2/4 53/2/4 57/2/4
f 53/3/4 55/3/4 57/3/4
f 55/2/4 56/2/4 58/2/4
f 57/3/4 55/3/4 58/3/4
f 56/3/4 54/3/4 59/3/4
f 58/2/4 56/2/4 59/2/4
f 54/2/4 50/2/4 60/2/4
f 59/3/4 54/3/4 60/3/4
f 57/2/4 58/2/4 61/2/4
f 52/2/4 57/2/4 61/2/4
f 58/3/4 59/3/4 62/3/4
f 61/2/4 58/2/4 62/2/4
f 59/2/4 60/2/4 63/2/4
f 62/3/4 59/3/4 63/3/4
f 60/2/4 50/2/4 64/2/4
f 63/2/4 60/2/4 64/2/4
f 52/2/4 61/2/4 65/2/4
f 61/3/4 62/3/4 65/3/4
f 62/2/4 63/2/4 66/2/4
f 65/3/4 62/3/4 66/3/4
f 52/2/4 65/2/4 67/2/4
f 65/2/4 66/2/4 67/2/4
f 66/2/4 63/2/4 68/2/4
f 67/2/4 66/2/4 68/2/4
f 63/3/4 64/3/4 68/3/4
f 49/2/4 51/2/4 69/2/4
f 51/3/4 52/3/4 70/3/4
f 69/2/4 51/2/4 70/2/4
f 52/2/4 67/2/4 71/2/4
f 70/3/4 52/3/4 71/3/4
f 67/3/4 68/3/4 72/3/4
f 71/2/4 67/2/4 72/2/4
f 68/3/4 64/3/4 73/3/4
f 72/3/4 68/3/4 73/3/4
f 64/2/4 50/2/4 73/2/4
f 73/2/4 50/2/4 74/2/4
f 71/1/4 72/1/4 75/1/4
f 69/1/4 70/1/4 75/1/4
f 73/1/4 74/1/4 75/1/4
f 72/1/4 73/1/4 75/1/4
f 70/1/4 71/1/4 75/1/4
f 75/1/4 74/1/4 76/1/4
f 80/2/5 78/2/5 77/2/5
f 81/1/5 79/1/5 78/1/5
f 81/2/5 78/2/5 80/2/5
f 82/1/5 79/1/5 81/1/5
f 85/3/5 84/3/5 83/3/5
f 86/3/5 84/3/5 85/3/5
f 87/3/6 88/3/6 89/3/6
f 89/3/6 88/3/6 90/3/6
f 91/2/6 92/2/6 94/2/6
f 92/1/6 93/1/6 95/1/6
f 94/2/6 92/2/6 95/2/6
f 95/1/6 93/1/6 96/1/6
