# MagicaVoxel @ Ephtracy

# group
o 

# material
mtllib Button Unpressed.mtl
usemtl palette

# normals
vn -1 0 0
vn 1 0 0
vn 0 0 1
vn 0 0 -1
vn 0 -1 0
vn 0 1 0

# texcoords
vt 0.0839844 0.5
vt 0.0878906 0.5
vt 0.115234 0.5
vt 0.919922 0.5

# verts
v -0.8 0 0.4
v -0.8 0 -0.4
v -0.8 0.1 0.4
v -0.8 0.1 0.2
v -0.8 0.1 -0.2
v -0.8 0.1 -0.4
v -0.8 0.2 0.2
v -0.8 0.2 -0.2
v -0.7 0 0.6
v -0.7 0 0.4
v -0.7 0 -0.4
v -0.7 0 -0.6
v -0.7 0.1 0.6
v -0.7 0.1 0.4
v -0.7 0.1 0.2
v -0.7 0.1 -0.2
v -0.7 0.1 -0.4
v -0.7 0.1 -0.6
v -0.7 0.2 0.4
v -0.7 0.2 0.2
v -0.7 0.2 -0.2
v -0.7 0.2 -0.4
v -0.6 0 0.7
v -0.6 0 0.6
v -0.6 0 -0.6
v -0.6 0 -0.7
v -0.6 0.1 0.7
v -0.6 0.1 0.6
v -0.6 0.1 0.5
v -0.6 0.1 0.4
v -0.6 0.1 -0.4
v -0.6 0.1 -0.5
v -0.6 0.1 -0.6
v -0.6 0.1 -0.7
v -0.6 0.2 0.5
v -0.6 0.2 0.4
v -0.6 0.2 0.2
v -0.6 0.2 -0.2
v -0.6 0.2 -0.4
v -0.6 0.2 -0.5
v -0.6 0.3 0.2
v -0.6 0.3 -0.2
v -0.5 0.1 0.6
v -0.5 0.1 0.5
v -0.5 0.1 -0.5
v -0.5 0.1 -0.6
v -0.5 0.2 0.6
v -0.5 0.2 0.5
v -0.5 0.2 0.4
v -0.5 0.2 0.2
v -0.5 0.2 -0.2
v -0.5 0.2 -0.4
v -0.5 0.2 -0.5
v -0.5 0.2 -0.6
v -0.5 0.3 0.4
v -0.5 0.3 0.2
v -0.5 0.3 -0.2
v -0.5 0.3 -0.4
v -0.4 0 0.8
v -0.4 0 0.7
v -0.4 0 -0.7
v -0.4 0 -0.8
v -0.4 0.1 0.8
v -0.4 0.1 0.7
v -0.4 0.1 0.6
v -0.4 0.1 -0.6
v -0.4 0.1 -0.7
v -0.4 0.1 -0.8
v -0.4 0.2 0.7
v -0.4 0.2 0.6
v -0.4 0.2 0.5
v -0.4 0.2 0.4
v -0.4 0.2 -0.4
v -0.4 0.2 -0.5
v -0.4 0.2 -0.6
v -0.4 0.2 -0.7
v -0.4 0.3 0.5
v -0.4 0.3 0.4
v -0.4 0.3 -0.4
v -0.4 0.3 -0.5
v -0.2 0.1 0.8
v -0.2 0.1 0.7
v -0.2 0.1 -0.7
v -0.2 0.1 -0.8
v -0.2 0.2 0.8
v -0.2 0.2 0.7
v -0.2 0.2 0.6
v -0.2 0.2 0.5
v -0.2 0.2 -0.5
v -0.2 0.2 -0.6
v -0.2 0.2 -0.7
v -0.2 0.2 -0.8
v -0.2 0.3 0.6
v -0.2 0.3 0.5
v -0.2 0.3 -0.5
v -0.2 0.3 -0.6
v 0.2 0.1 0.8
v 0.2 0.1 0.7
v 0.2 0.1 -0.7
v 0.2 0.1 -0.8
v 0.2 0.2 0.8
v 0.2 0.2 0.7
v 0.2 0.2 0.6
v 0.2 0.2 0.5
v 0.2 0.2 -0.5
v 0.2 0.2 -0.6
v 0.2 0.2 -0.7
v 0.2 0.2 -0.8
v 0.2 0.3 0.6
v 0.2 0.3 0.5
v 0.2 0.3 -0.5
v 0.2 0.3 -0.6
v 0.4 0 0.8
v 0.4 0 0.7
v 0.4 0 -0.7
v 0.4 0 -0.8
v 0.4 0.1 0.8
v 0.4 0.1 0.7
v 0.4 0.1 0.6
v 0.4 0.1 -0.6
v 0.4 0.1 -0.7
v 0.4 0.1 -0.8
v 0.4 0.2 0.7
v 0.4 0.2 0.6
v 0.4 0.2 0.5
v 0.4 0.2 0.4
v 0.4 0.2 -0.4
v 0.4 0.2 -0.5
v 0.4 0.2 -0.6
v 0.4 0.2 -0.7
v 0.4 0.3 0.5
v 0.4 0.3 0.4
v 0.4 0.3 -0.4
v 0.4 0.3 -0.5
v 0.5 0.1 0.6
v 0.5 0.1 0.5
v 0.5 0.1 -0.5
v 0.5 0.1 -0.6
v 0.5 0.2 0.6
v 0.5 0.2 0.5
v 0.5 0.2 0.4
v 0.5 0.2 0.2
v 0.5 0.2 -0.2
v 0.5 0.2 -0.4
v 0.5 0.2 -0.5
v 0.5 0.2 -0.6
v 0.5 0.3 0.4
v 0.5 0.3 0.2
v 0.5 0.3 -0.2
v 0.5 0.3 -0.4
v 0.6 0 0.7
v 0.6 0 0.6
v 0.6 0 -0.6
v 0.6 0 -0.7
v 0.6 0.1 0.7
v 0.6 0.1 0.6
v 0.6 0.1 0.5
v 0.6 0.1 0.4
v 0.6 0.1 -0.4
v 0.6 0.1 -0.5
v 0.6 0.1 -0.6
v 0.6 0.1 -0.7
v 0.6 0.2 0.5
v 0.6 0.2 0.4
v 0.6 0.2 0.2
v 0.6 0.2 -0.2
v 0.6 0.2 -0.4
v 0.6 0.2 -0.5
v 0.6 0.3 0.2
v 0.6 0.3 -0.2
v 0.7 0 0.6
v 0.7 0 0.4
v 0.7 0 -0.4
v 0.7 0 -0.6
v 0.7 0.1 0.6
v 0.7 0.1 0.4
v 0.7 0.1 0.2
v 0.7 0.1 -0.2
v 0.7 0.1 -0.4
v 0.7 0.1 -0.6
v 0.7 0.2 0.4
v 0.7 0.2 0.2
v 0.7 0.2 -0.2
v 0.7 0.2 -0.4
v 0.8 0 0.4
v 0.8 0 -0.4
v 0.8 0.1 0.4
v 0.8 0.1 0.2
v 0.8 0.1 -0.2
v 0.8 0.1 -0.4
v 0.8 0.2 0.2
v 0.8 0.2 -0.2
v -0.4 0 0.8
v -0.4 0.1 0.8
v -0.2 0.1 0.8
v -0.2 0.2 0.8
v 0.2 0.1 0.8
v 0.2 0.2 0.8
v 0.4 0 0.8
v 0.4 0.1 0.8
v -0.6 0 0.7
v -0.6 0.1 0.7
v -0.4 0 0.7
v -0.4 0.1 0.7
v -0.4 0.2 0.7
v -0.2 0.1 0.7
v -0.2 0.2 0.7
v 0.2 0.1 0.7
v 0.2 0.2 0.7
v 0.4 0 0.7
v 0.4 0.1 0.7
v 0.4 0.2 0.7
v 0.6 0 0.7
v 0.6 0.1 0.7
v -0.7 0 0.6
v -0.7 0.1 0.6
v -0.6 0 0.6
v -0.6 0.1 0.6
v -0.5 0.1 0.6
v -0.5 0.2 0.6
v -0.4 0.1 0.6
v -0.4 0.2 0.6
v -0.2 0.2 0.6
v -0.2 0.3 0.6
v 0.2 0.2 0.6
v 0.2 0.3 0.6
v 0.4 0.1 0.6
v 0.4 0.2 0.6
v 0.5 0.1 0.6
v 0.5 0.2 0.6
v 0.6 0 0.6
v 0.6 0.1 0.6
v 0.7 0 0.6
v 0.7 0.1 0.6
v -0.6 0.1 0.5
v -0.6 0.2 0.5
v -0.5 0.1 0.5
v -0.5 0.2 0.5
v -0.4 0.2 0.5
v -0.4 0.3 0.5
v -0.2 0.2 0.5
v -0.2 0.3 0.5
v 0.2 0.2 0.5
v 0.2 0.3 0.5
v 0.4 0.2 0.5
v 0.4 0.3 0.5
v 0.5 0.1 0.5
v 0.5 0.2 0.5
v 0.6 0.1 0.5
v 0.6 0.2 0.5
v -0.8 0 0.4
v -0.8 0.1 0.4
v -0.7 0 0.4
v -0.7 0.1 0.4
v -0.7 0.2 0.4
v -0.6 0.1 0.4
v -0.6 0.2 0.4
v -0.5 0.2 0.4
v -0.5 0.3 0.4
v -0.4 0.2 0.4
v -0.4 0.3 0.4
v 0.4 0.2 0.4
v 0.4 0.3 0.4
v 0.5 0.2 0.4
v 0.5 0.3 0.4
v 0.6 0.1 0.4
v 0.6 0.2 0.4
v 0.7 0 0.4
v 0.7 0.1 0.4
v 0.7 0.2 0.4
v 0.8 0 0.4
v 0.8 0.1 0.4
v -0.8 0.1 0.2
v -0.8 0.2 0.2
v -0.7 0.1 0.2
v -0.7 0.2 0.2
v -0.6 0.2 0.2
v -0.6 0.3 0.2
v -0.5 0.2 0.2
v -0.5 0.3 0.2
v 0.5 0.2 0.2
v 0.5 0.3 0.2
v 0.6 0.2 0.2
v 0.6 0.3 0.2
v 0.7 0.1 0.2
v 0.7 0.2 0.2
v 0.8 0.1 0.2
v 0.8 0.2 0.2
v -0.8 0.1 -0.2
v -0.8 0.2 -0.2
v -0.7 0.1 -0.2
v -0.7 0.2 -0.2
v -0.6 0.2 -0.2
v -0.6 0.3 -0.2
v -0.5 0.2 -0.2
v -0.5 0.3 -0.2
v 0.5 0.2 -0.2
v 0.5 0.3 -0.2
v 0.6 0.2 -0.2
v 0.6 0.3 -0.2
v 0.7 0.1 -0.2
v 0.7 0.2 -0.2
v 0.8 0.1 -0.2
v 0.8 0.2 -0.2
v -0.8 0 -0.4
v -0.8 0.1 -0.4
v -0.7 0 -0.4
v -0.7 0.1 -0.4
v -0.7 0.2 -0.4
v -0.6 0.1 -0.4
v -0.6 0.2 -0.4
v -0.5 0.2 -0.4
v -0.5 0.3 -0.4
v -0.4 0.2 -0.4
v -0.4 0.3 -0.4
v 0.4 0.2 -0.4
v 0.4 0.3 -0.4
v 0.5 0.2 -0.4
v 0.5 0.3 -0.4
v 0.6 0.1 -0.4
v 0.6 0.2 -0.4
v 0.7 0 -0.4
v 0.7 0.1 -0.4
v 0.7 0.2 -0.4
v 0.8 0 -0.4
v 0.8 0.1 -0.4
v -0.6 0.1 -0.5
v -0.6 0.2 -0.5
v -0.5 0.1 -0.5
v -0.5 0.2 -0.5
v -0.4 0.2 -0.5
v -0.4 0.3 -0.5
v -0.2 0.2 -0.5
v -0.2 0.3 -0.5
v 0.2 0.2 -0.5
v 0.2 0.3 -0.5
v 0.4 0.2 -0.5
v 0.4 0.3 -0.5
v 0.5 0.1 -0.5
v 0.5 0.2 -0.5
v 0.6 0.1 -0.5
v 0.6 0.2 -0.5
v -0.7 0 -0.6
v -0.7 0.1 -0.6
v -0.6 0 -0.6
v -0.6 0.1 -0.6
v -0.5 0.1 -0.6
v -0.5 0.2 -0.6
v -0.4 0.1 -0.6
v -0.4 0.2 -0.6
v -0.2 0.2 -0.6
v -0.2 0.3 -0.6
v 0.2 0.2 -0.6
v 0.2 0.3 -0.6
v 0.4 0.1 -0.6
v 0.4 0.2 -0.6
v 0.5 0.1 -0.6
v 0.5 0.2 -0.6
v 0.6 0 -0.6
v 0.6 0.1 -0.6
v 0.7 0 -0.6
v 0.7 0.1 -0.6
v -0.6 0 -0.7
v -0.6 0.1 -0.7
v -0.4 0 -0.7
v -0.4 0.1 -0.7
v -0.4 0.2 -0.7
v -0.2 0.1 -0.7
v -0.2 0.2 -0.7
v 0.2 0.1 -0.7
v 0.2 0.2 -0.7
v 0.4 0 -0.7
v 0.4 0.1 -0.7
v 0.4 0.2 -0.7
v 0.6 0 -0.7
v 0.6 0.1 -0.7
v -0.4 0 -0.8
v -0.4 0.1 -0.8
v -0.2 0.1 -0.8
v -0.2 0.2 -0.8
v 0.2 0.1 -0.8
v 0.2 0.2 -0.8
v 0.4 0 -0.8
v 0.4 0.1 -0.8
v -0.4 0 0.8
v 0.4 0 0.8
v -0.6 0 0.7
v -0.4 0 0.7
v 0.4 0 0.7
v 0.6 0 0.7
v -0.7 0 0.6
v -0.6 0 0.6
v 0.6 0 0.6
v 0.7 0 0.6
v -0.8 0 0.4
v -0.7 0 0.4
v 0.7 0 0.4
v 0.8 0 0.4
v -0.8 0 -0.4
v -0.7 0 -0.4
v 0.7 0 -0.4
v 0.8 0 -0.4
v -0.7 0 -0.6
v -0.6 0 -0.6
v 0.6 0 -0.6
v 0.7 0 -0.6
v -0.6 0 -0.7
v -0.4 0 -0.7
v 0.4 0 -0.7
v 0.6 0 -0.7
v -0.4 0 -0.8
v 0.4 0 -0.8
v -0.4 0.1 0.8
v -0.2 0.1 0.8
v 0.2 0.1 0.8
v 0.4 0.1 0.8
v -0.6 0.1 0.7
v -0.4 0.1 0.7
v -0.2 0.1 0.7
v 0.2 0.1 0.7
v 0.4 0.1 0.7
v 0.6 0.1 0.7
v -0.7 0.1 0.6
v -0.6 0.1 0.6
v -0.5 0.1 0.6
v -0.4 0.1 0.6
v 0.4 0.1 0.6
v 0.5 0.1 0.6
v 0.6 0.1 0.6
v 0.7 0.1 0.6
v -0.6 0.1 0.5
v -0.5 0.1 0.5
v 0.5 0.1 0.5
v 0.6 0.1 0.5
v -0.8 0.1 0.4
v -0.7 0.1 0.4
v -0.6 0.1 0.4
v 0.6 0.1 0.4
v 0.7 0.1 0.4
v 0.8 0.1 0.4
v -0.8 0.1 0.2
v -0.7 0.1 0.2
v 0.7 0.1 0.2
v 0.8 0.1 0.2
v -0.8 0.1 -0.2
v -0.7 0.1 -0.2
v 0.7 0.1 -0.2
v 0.8 0.1 -0.2
v -0.8 0.1 -0.4
v -0.7 0.1 -0.4
v -0.6 0.1 -0.4
v 0.6 0.1 -0.4
v 0.7 0.1 -0.4
v 0.8 0.1 -0.4
v -0.6 0.1 -0.5
v -0.5 0.1 -0.5
v 0.5 0.1 -0.5
v 0.6 0.1 -0.5
v -0.7 0.1 -0.6
v -0.6 0.1 -0.6
v -0.5 0.1 -0.6
v -0.4 0.1 -0.6
v 0.4 0.1 -0.6
v 0.5 0.1 -0.6
v 0.6 0.1 -0.6
v 0.7 0.1 -0.6
v -0.6 0.1 -0.7
v -0.4 0.1 -0.7
v -0.2 0.1 -0.7
v 0.2 0.1 -0.7
v 0.4 0.1 -0.7
v 0.6 0.1 -0.7
v -0.4 0.1 -0.8
v -0.2 0.1 -0.8
v 0.2 0.1 -0.8
v 0.4 0.1 -0.8
v -0.2 0.2 0.8
v 0.2 0.2 0.8
v -0.4 0.2 0.7
v -0.2 0.2 0.7
v 0.2 0.2 0.7
v 0.4 0.2 0.7
v -0.5 0.2 0.6
v -0.4 0.2 0.6
v -0.2 0.2 0.6
v 0.2 0.2 0.6
v 0.4 0.2 0.6
v 0.5 0.2 0.6
v -0.6 0.2 0.5
v -0.5 0.2 0.5
v -0.4 0.2 0.5
v -0.2 0.2 0.5
v 0.2 0.2 0.5
v 0.4 0.2 0.5
v 0.5 0.2 0.5
v 0.6 0.2 0.5
v -0.7 0.2 0.4
v -0.6 0.2 0.4
v -0.5 0.2 0.4
v -0.4 0.2 0.4
v 0.4 0.2 0.4
v 0.5 0.2 0.4
v 0.6 0.2 0.4
v 0.7 0.2 0.4
v -0.8 0.2 0.2
v -0.7 0.2 0.2
v -0.6 0.2 0.2
v -0.5 0.2 0.2
v 0.5 0.2 0.2
v 0.6 0.2 0.2
v 0.7 0.2 0.2
v 0.8 0.2 0.2
v -0.8 0.2 -0.2
v -0.7 0.2 -0.2
v -0.6 0.2 -0.2
v -0.5 0.2 -0.2
v 0.5 0.2 -0.2
v 0.6 0.2 -0.2
v 0.7 0.2 -0.2
v 0.8 0.2 -0.2
v -0.7 0.2 -0.4
v -0.6 0.2 -0.4
v -0.5 0.2 -0.4
v -0.4 0.2 -0.4
v 0.4 0.2 -0.4
v 0.5 0.2 -0.4
v 0.6 0.2 -0.4
v 0.7 0.2 -0.4
v -0.6 0.2 -0.5
v -0.5 0.2 -0.5
v -0.4 0.2 -0.5
v -0.2 0.2 -0.5
v 0.2 0.2 -0.5
v 0.4 0.2 -0.5
v 0.5 0.2 -0.5
v 0.6 0.2 -0.5
v -0.5 0.2 -0.6
v -0.4 0.2 -0.6
v -0.2 0.2 -0.6
v 0.2 0.2 -0.6
v 0.4 0.2 -0.6
v 0.5 0.2 -0.6
v -0.4 0.2 -0.7
v -0.2 0.2 -0.7
v 0.2 0.2 -0.7
v 0.4 0.2 -0.7
v -0.2 0.2 -0.8
v 0.2 0.2 -0.8
v -0.2 0.3 0.6
v 0.2 0.3 0.6
v -0.4 0.3 0.5
v -0.2 0.3 0.5
v 0.2 0.3 0.5
v 0.4 0.3 0.5
v -0.5 0.3 0.4
v -0.4 0.3 0.4
v 0.4 0.3 0.4
v 0.5 0.3 0.4
v -0.6 0.3 0.2
v -0.5 0.3 0.2
v 0.5 0.3 0.2
v 0.6 0.3 0.2
v -0.5 0.3 0
v -0.4 0.3 0
v -0.6 0.3 -0.2
v -0.5 0.3 -0.2
v -0.4 0.3 -0.2
v -0.3 0.3 -0.2
v 0.5 0.3 -0.2
v 0.6 0.3 -0.2
v -0.4 0.3 -0.3
v -0.3 0.3 -0.3
v -0.5 0.3 -0.4
v -0.4 0.3 -0.4
v -0.2 0.3 -0.4
v 0 0.3 -0.4
v 0.4 0.3 -0.4
v 0.5 0.3 -0.4
v -0.4 0.3 -0.5
v -0.2 0.3 -0.5
v 0 0.3 -0.5
v 0.2 0.3 -0.5
v 0.4 0.3 -0.5
v -0.2 0.3 -0.6
v 0.2 0.3 -0.6

# faces
f 3/4/1 2/4/1 1/4/1
f 4/4/1 2/4/1 3/4/1
f 5/4/1 2/4/1 4/4/1
f 6/4/1 2/4/1 5/4/1
f 7/4/1 5/4/1 4/4/1
f 8/4/1 5/4/1 7/4/1
f 13/4/1 10/4/1 9/4/1
f 14/4/1 10/4/1 13/4/1
f 17/4/1 12/4/1 11/4/1
f 18/4/1 12/4/1 17/4/1
f 19/4/1 15/4/1 14/4/1
f 20/4/1 15/4/1 19/4/1
f 21/4/1 17/4/1 16/4/1
f 22/4/1 17/4/1 21/4/1
f 27/4/1 24/4/1 23/4/1
f 28/4/1 24/4/1 27/4/1
f 33/4/1 26/4/1 25/4/1
f 34/4/1 26/4/1 33/4/1
f 35/4/1 30/4/1 29/4/1
f 36/4/1 30/4/1 35/4/1
f 39/4/1 32/4/1 31/4/1
f 40/4/1 32/4/1 39/4/1
f 41/3/1 38/3/1 37/3/1
f 42/3/1 38/3/1 41/3/1
f 47/4/1 44/4/1 43/4/1
f 48/4/1 44/4/1 47/4/1
f 53/4/1 46/4/1 45/4/1
f 54/4/1 46/4/1 53/4/1
f 55/3/1 50/3/1 49/3/1
f 56/3/1 50/3/1 55/3/1
f 57/3/1 52/3/1 51/3/1
f 58/3/1 52/3/1 57/3/1
f 63/4/1 60/4/1 59/4/1
f 64/4/1 60/4/1 63/4/1
f 67/4/1 62/4/1 61/4/1
f 68/4/1 62/4/1 67/4/1
f 69/4/1 65/4/1 64/4/1
f 70/4/1 65/4/1 69/4/1
f 75/4/1 67/4/1 66/4/1
f 76/4/1 67/4/1 75/4/1
f 77/3/1 72/3/1 71/3/1
f 78/3/1 72/3/1 77/3/1
f 79/3/1 74/3/1 73/3/1
f 80/3/1 74/3/1 79/3/1
f 85/4/1 82/4/1 81/4/1
f 86/4/1 82/4/1 85/4/1
f 91/4/1 84/4/1 83/4/1
f 92/4/1 84/4/1 91/4/1
f 93/3/1 88/3/1 87/3/1
f 94/3/1 88/3/1 93/3/1
f 95/3/1 90/3/1 89/3/1
f 96/3/1 90/3/1 95/3/1
f 97/4/2 98/4/2 101/4/2
f 101/4/2 98/4/2 102/4/2
f 99/4/2 100/4/2 107/4/2
f 107/4/2 100/4/2 108/4/2
f 103/3/2 104/3/2 109/3/2
f 109/3/2 104/3/2 110/3/2
f 105/3/2 106/3/2 111/3/2
f 111/3/2 106/3/2 112/3/2
f 113/4/2 114/4/2 117/4/2
f 117/4/2 114/4/2 118/4/2
f 115/4/2 116/4/2 121/4/2
f 121/4/2 116/4/2 122/4/2
f 118/4/2 119/4/2 123/4/2
f 123/4/2 119/4/2 124/4/2
f 120/4/2 121/4/2 129/4/2
f 129/4/2 121/4/2 130/4/2
f 125/3/2 126/3/2 131/3/2
f 131/3/2 126/3/2 132/3/2
f 127/3/2 128/3/2 133/3/2
f 133/3/2 128/3/2 134/3/2
f 135/4/2 136/4/2 139/4/2
f 139/4/2 136/4/2 140/4/2
f 137/4/2 138/4/2 145/4/2
f 145/4/2 138/4/2 146/4/2
f 141/3/2 142/3/2 147/3/2
f 147/3/2 142/3/2 148/3/2
f 143/3/2 144/3/2 149/3/2
f 149/3/2 144/3/2 150/3/2
f 151/4/2 152/4/2 155/4/2
f 155/4/2 152/4/2 156/4/2
f 153/4/2 154/4/2 161/4/2
f 161/4/2 154/4/2 162/4/2
f 157/4/2 158/4/2 163/4/2
f 163/4/2 158/4/2 164/4/2
f 159/4/2 160/4/2 167/4/2
f 167/4/2 160/4/2 168/4/2
f 165/3/2 166/3/2 169/3/2
f 169/3/2 166/3/2 170/3/2
f 171/4/2 172/4/2 175/4/2
f 175/4/2 172/4/2 176/4/2
f 173/4/2 174/4/2 179/4/2
f 179/4/2 174/4/2 180/4/2
f 176/4/2 177/4/2 181/4/2
f 181/4/2 177/4/2 182/4/2
f 178/4/2 179/4/2 183/4/2
f 183/4/2 179/4/2 184/4/2
f 185/4/2 186/4/2 187/4/2
f 187/4/2 186/4/2 188/4/2
f 188/4/2 186/4/2 189/4/2
f 189/4/2 186/4/2 190/4/2
f 188/4/2 189/4/2 191/4/2
f 191/4/2 189/4/2 192/4/2
f 195/4/3 194/4/3 193/4/3
f 197/4/3 195/4/3 193/4/3
f 197/4/3 196/4/3 195/4/3
f 198/4/3 196/4/3 197/4/3
f 199/4/3 197/4/3 193/4/3
f 200/4/3 197/4/3 199/4/3
f 203/4/3 202/4/3 201/4/3
f 204/4/3 202/4/3 203/4/3
f 206/4/3 205/4/3 204/4/3
f 207/4/3 205/4/3 206/4/3
f 211/4/3 209/4/3 208/4/3
f 212/4/3 209/4/3 211/4/3
f 213/4/3 211/4/3 210/4/3
f 214/4/3 211/4/3 213/4/3
f 217/4/3 216/4/3 215/4/3
f 218/4/3 216/4/3 217/4/3
f 221/4/3 220/4/3 219/4/3
f 222/4/3 220/4/3 221/4/3
f 225/3/3 224/3/3 223/3/3
f 226/3/3 224/3/3 225/3/3
f 229/4/3 228/4/3 227/4/3
f 230/4/3 228/4/3 229/4/3
f 233/4/3 232/4/3 231/4/3
f 234/4/3 232/4/3 233/4/3
f 237/4/3 236/4/3 235/4/3
f 238/4/3 236/4/3 237/4/3
f 241/3/3 240/3/3 239/3/3
f 242/3/3 240/3/3 241/3/3
f 245/3/3 244/3/3 243/3/3
f 246/3/3 244/3/3 245/3/3
f 249/4/3 248/4/3 247/4/3
f 250/4/3 248/4/3 249/4/3
f 253/4/3 252/4/3 251/4/3
f 254/4/3 252/4/3 253/4/3
f 256/4/3 255/4/3 254/4/3
f 257/4/3 255/4/3 256/4/3
f 260/3/3 259/3/3 258/3/3
f 261/3/3 259/3/3 260/3/3
f 264/3/3 263/3/3 262/3/3
f 265/3/3 263/3/3 264/3/3
f 269/4/3 267/4/3 266/4/3
f 270/4/3 267/4/3 269/4/3
f 271/4/3 269/4/3 268/4/3
f 272/4/3 269/4/3 271/4/3
f 275/4/3 274/4/3 273/4/3
f 276/4/3 274/4/3 275/4/3
f 279/3/3 278/3/3 277/3/3
f 280/3/3 278/3/3 279/3/3
f 283/3/3 282/3/3 281/3/3
f 284/3/3 282/3/3 283/3/3
f 287/4/3 286/4/3 285/4/3
f 288/4/3 286/4/3 287/4/3
f 289/4/4 290/4/4 291/4/4
f 291/4/4 290/4/4 292/4/4
f 293/3/4 294/3/4 295/3/4
f 295/3/4 294/3/4 296/3/4
f 297/3/4 298/3/4 299/3/4
f 299/3/4 298/3/4 300/3/4
f 301/4/4 302/4/4 303/4/4
f 303/4/4 302/4/4 304/4/4
f 305/4/4 306/4/4 307/4/4
f 307/4/4 306/4/4 308/4/4
f 308/4/4 309/4/4 310/4/4
f 310/4/4 309/4/4 311/4/4
f 312/3/4 313/3/4 314/3/4
f 314/3/4 313/3/4 315/3/4
f 316/3/4 317/3/4 318/3/4
f 318/3/4 317/3/4 319/3/4
f 320/4/4 321/4/4 323/4/4
f 323/4/4 321/4/4 324/4/4
f 322/4/4 323/4/4 325/4/4
f 325/4/4 323/4/4 326/4/4
f 327/4/4 328/4/4 329/4/4
f 329/4/4 328/4/4 330/4/4
f 331/3/4 332/3/4 333/3/4
f 333/3/4 332/3/4 334/3/4
f 335/3/4 336/3/4 337/3/4
f 337/3/4 336/3/4 338/3/4
f 339/4/4 340/4/4 341/4/4
f 341/4/4 340/4/4 342/4/4
f 343/4/4 344/4/4 345/4/4
f 345/4/4 344/4/4 346/4/4
f 347/4/4 348/4/4 349/4/4
f 349/4/4 348/4/4 350/4/4
f 351/3/4 352/3/4 353/3/4
f 353/3/4 352/3/4 354/3/4
f 355/4/4 356/4/4 357/4/4
f 357/4/4 356/4/4 358/4/4
f 359/4/4 360/4/4 361/4/4
f 361/4/4 360/4/4 362/4/4
f 363/4/4 364/4/4 365/4/4
f 365/4/4 364/4/4 366/4/4
f 366/4/4 367/4/4 368/4/4
f 368/4/4 367/4/4 369/4/4
f 370/4/4 371/4/4 373/4/4
f 373/4/4 371/4/4 374/4/4
f 372/4/4 373/4/4 375/4/4
f 375/4/4 373/4/4 376/4/4
f 377/4/4 378/4/4 379/4/4
f 377/4/4 379/4/4 381/4/4
f 379/4/4 380/4/4 381/4/4
f 381/4/4 380/4/4 382/4/4
f 377/4/4 381/4/4 383/4/4
f 383/4/4 381/4/4 384/4/4
f 388/4/5 386/4/5 385/4/5
f 389/4/5 386/4/5 388/4/5
f 392/4/5 388/4/5 387/4/5
f 392/4/5 390/4/5 389/4/5
f 392/4/5 389/4/5 388/4/5
f 393/4/5 390/4/5 392/4/5
f 396/4/5 392/4/5 391/4/5
f 396/4/5 394/4/5 393/4/5
f 396/4/5 393/4/5 392/4/5
f 397/4/5 394/4/5 396/4/5
f 399/4/5 396/4/5 395/4/5
f 399/4/5 398/4/5 397/4/5
f 399/4/5 397/4/5 396/4/5
f 400/4/5 398/4/5 399/4/5
f 401/4/5 398/4/5 400/4/5
f 402/4/5 398/4/5 401/4/5
f 403/4/5 401/4/5 400/4/5
f 404/4/5 401/4/5 403/4/5
f 405/4/5 401/4/5 404/4/5
f 406/4/5 401/4/5 405/4/5
f 407/4/5 405/4/5 404/4/5
f 408/4/5 405/4/5 407/4/5
f 409/4/5 405/4/5 408/4/5
f 410/4/5 405/4/5 409/4/5
f 411/4/5 409/4/5 408/4/5
f 412/4/5 409/4/5 411/4/5
f 413/4/6 414/4/6 418/4/6
f 418/4/6 414/4/6 419/4/6
f 415/4/6 416/4/6 420/4/6
f 420/4/6 416/4/6 421/4/6
f 417/4/6 418/4/6 424/4/6
f 424/4/6 418/4/6 425/4/6
f 425/4/6 418/4/6 426/4/6
f 421/4/6 422/4/6 427/4/6
f 427/4/6 422/4/6 428/4/6
f 428/4/6 422/4/6 429/4/6
f 423/4/6 424/4/6 431/4/6
f 424/4/6 425/4/6 431/4/6
f 431/4/6 425/4/6 432/4/6
f 429/4/6 430/4/6 433/4/6
f 428/4/6 429/4/6 433/4/6
f 433/4/6 430/4/6 434/4/6
f 423/4/6 431/4/6 436/4/6
f 436/4/6 431/4/6 437/4/6
f 434/4/6 430/4/6 438/4/6
f 438/4/6 430/4/6 439/4/6
f 435/4/6 436/4/6 441/4/6
f 441/4/6 436/4/6 442/4/6
f 439/4/6 440/4/6 443/4/6
f 443/4/6 440/4/6 444/4/6
f 445/4/6 446/4/6 449/4/6
f 449/4/6 446/4/6 450/4/6
f 447/4/6 448/4/6 453/4/6
f 453/4/6 448/4/6 454/4/6
f 450/4/6 451/4/6 455/4/6
f 452/4/6 453/4/6 458/4/6
f 455/4/6 456/4/6 459/4/6
f 450/4/6 455/4/6 459/4/6
f 459/4/6 456/4/6 460/4/6
f 460/4/6 456/4/6 461/4/6
f 457/4/6 458/4/6 464/4/6
f 458/4/6 453/4/6 465/4/6
f 464/4/6 458/4/6 465/4/6
f 465/4/6 453/4/6 466/4/6
f 461/4/6 462/4/6 467/4/6
f 460/4/6 461/4/6 467/4/6
f 467/4/6 462/4/6 468/4/6
f 463/4/6 464/4/6 471/4/6
f 464/4/6 465/4/6 471/4/6
f 471/4/6 465/4/6 472/4/6
f 468/4/6 469/4/6 473/4/6
f 473/4/6 469/4/6 474/4/6
f 470/4/6 471/4/6 475/4/6
f 475/4/6 471/4/6 476/4/6
f 477/4/6 478/4/6 480/4/6
f 480/4/6 478/4/6 481/4/6
f 479/4/6 480/4/6 484/4/6
f 480/2/6 481/2/6 485/2/6
f 484/4/6 480/4/6 485/4/6
f 481/4/6 482/4/6 486/4/6
f 485/2/6 481/2/6 486/2/6
f 486/4/6 482/4/6 487/4/6
f 483/4/6 484/4/6 490/4/6
f 484/2/6 485/2/6 491/2/6
f 490/4/6 484/4/6 491/4/6
f 491/2/6 485/2/6 492/2/6
f 486/2/6 487/2/6 493/2/6
f 487/4/6 488/4/6 494/4/6
f 493/2/6 487/2/6 494/2/6
f 494/4/6 488/4/6 495/4/6
f 489/4/6 490/4/6 498/4/6
f 490/2/6 491/2/6 499/2/6
f 498/4/6 490/4/6 499/4/6
f 499/2/6 491/2/6 500/2/6
f 494/2/6 495/2/6 501/2/6
f 495/4/6 496/4/6 502/4/6
f 501/2/6 495/2/6 502/2/6
f 502/4/6 496/4/6 503/4/6
f 497/4/6 498/4/6 506/4/6
f 498/2/6 499/2/6 507/2/6
f 506/4/6 498/4/6 507/4/6
f 507/2/6 499/2/6 508/2/6
f 502/2/6 503/2/6 509/2/6
f 503/4/6 504/4/6 510/4/6
f 509/2/6 503/2/6 510/2/6
f 510/4/6 504/4/6 511/4/6
f 505/4/6 506/4/6 513/4/6
f 506/2/6 507/2/6 514/2/6
f 513/4/6 506/4/6 514/4/6
f 514/2/6 507/2/6 515/2/6
f 510/2/6 511/2/6 518/2/6
f 511/4/6 512/4/6 519/4/6
f 518/2/6 511/2/6 519/2/6
f 519/4/6 512/4/6 520/4/6
f 514/4/6 515/4/6 521/4/6
f 515/2/6 516/2/6 522/2/6
f 521/4/6 515/4/6 522/4/6
f 522/2/6 516/2/6 523/2/6
f 517/2/6 518/2/6 526/2/6
f 518/4/6 519/4/6 527/4/6
f 526/2/6 518/2/6 527/2/6
f 527/4/6 519/4/6 528/4/6
f 522/4/6 523/4/6 529/4/6
f 523/2/6 524/2/6 530/2/6
f 529/4/6 523/4/6 530/4/6
f 530/2/6 524/2/6 531/2/6
f 525/2/6 526/2/6 534/2/6
f 526/4/6 527/4/6 535/4/6
f 534/2/6 526/2/6 535/2/6
f 535/4/6 527/4/6 536/4/6
f 530/4/6 531/4/6 537/4/6
f 531/2/6 532/2/6 538/2/6
f 537/4/6 531/4/6 538/4/6
f 538/2/6 532/2/6 539/2/6
f 533/2/6 534/2/6 540/2/6
f 534/4/6 535/4/6 541/4/6
f 540/2/6 534/2/6 541/2/6
f 541/4/6 535/4/6 542/4/6
f 538/4/6 539/4/6 543/4/6
f 539/2/6 540/2/6 544/2/6
f 543/4/6 539/4/6 544/4/6
f 540/4/6 541/4/6 545/4/6
f 544/2/6 540/2/6 545/2/6
f 545/4/6 541/4/6 546/4/6
f 544/4/6 545/4/6 547/4/6
f 547/4/6 545/4/6 548/4/6
f 549/3/6 550/3/6 552/3/6
f 552/3/6 550/3/6 553/3/6
f 551/3/6 552/3/6 556/3/6
f 553/3/6 554/3/6 556/3/6
f 552/3/6 553/3/6 556/3/6
f 556/3/6 554/3/6 557/3/6
f 555/3/6 556/3/6 560/3/6
f 557/3/6 558/3/6 560/3/6
f 556/3/6 557/3/6 560/3/6
f 560/3/6 558/3/6 561/3/6
f 559/3/6 560/3/6 563/3/6
f 561/3/6 562/3/6 563/3/6
f 560/3/6 561/3/6 563/3/6
f 563/3/6 562/3/6 564/3/6
f 559/3/6 563/3/6 565/3/6
f 563/1/6 564/1/6 566/1/6
f 565/3/6 563/3/6 566/3/6
f 564/3/6 562/3/6 567/3/6
f 566/1/6 564/1/6 567/1/6
f 567/3/6 562/3/6 568/3/6
f 568/3/6 562/3/6 569/3/6
f 569/3/6 562/3/6 570/3/6
f 566/3/6 567/3/6 571/3/6
f 567/1/6 568/1/6 571/1/6
f 568/3/6 569/3/6 572/3/6
f 571/1/6 568/1/6 572/1/6
f 566/3/6 571/3/6 573/3/6
f 571/3/6 572/3/6 573/3/6
f 573/3/6 572/3/6 574/3/6
f 572/3/6 569/3/6 575/3/6
f 574/3/6 572/3/6 575/3/6
f 575/3/6 569/3/6 576/3/6
f 576/3/6 569/3/6 577/3/6
f 577/3/6 569/3/6 578/3/6
f 574/3/6 575/3/6 579/3/6
f 575/1/6 576/1/6 580/1/6
f 579/3/6 575/3/6 580/3/6
f 576/3/6 577/3/6 581/3/6
f 580/1/6 576/1/6 581/1/6
f 581/3/6 577/3/6 582/3/6
f 582/3/6 577/3/6 583/3/6
f 580/3/6 581/3/6 584/3/6
f 581/3/6 582/3/6 584/3/6
f 584/3/6 582/3/6 585/3/6
