# MagicaVoxel @ Ephtracy

# group
o 

# material
mtllib TR Button Unpressed.mtl
usemtl palette

# normals
vn -1 0 0
vn 1 0 0
vn 0 0 1
vn 0 0 -1
vn 0 -1 0
vn 0 1 0

# texcoords
vt 0.568359 0.5
vt 0.572266 0.5
vt 0.576172 0.5
vt 0.919922 0.5

# verts
v -0.8 0 -0.2
v -0.8 0 -0.5
v -0.8 0.1 -0.2
v -0.8 0.1 -0.5
v -0.7 0 -0.1
v -0.7 0 -0.2
v -0.7 0 -0.5
v -0.7 0 -0.6
v -0.7 0.1 -0.1
v -0.7 0.1 -0.2
v -0.7 0.1 -0.5
v -0.7 0.1 -0.6
v -0.7 0.2 -0.2
v -0.7 0.2 -0.5
v -0.6 0 0
v -0.6 0 -0.1
v -0.6 0 -0.6
v -0.6 0 -0.7
v -0.6 0.1 0
v -0.6 0.1 -0.1
v -0.6 0.1 -0.2
v -0.6 0.1 -0.5
v -0.6 0.1 -0.6
v -0.6 0.1 -0.7
v -0.6 0.2 -0.1
v -0.6 0.2 -0.2
v -0.6 0.2 -0.5
v -0.6 0.2 -0.6
v -0.5 0 0.2
v -0.5 0 0
v -0.5 0.1 0.2
v -0.5 0.1 0
v -0.5 0.1 -0.1
v -0.5 0.2 0
v -0.5 0.2 -0.1
v -0.5 0.2 -0.3
v -0.5 0.2 -0.4
v -0.5 0.3 -0.3
v -0.5 0.3 -0.4
v -0.4 0 0.3
v -0.4 0 0.2
v -0.4 0.1 0.3
v -0.4 0.1 0.2
v -0.4 0.1 0
v -0.4 0.2 0.2
v -0.4 0.2 0
v -0.4 0.2 -0.2
v -0.4 0.2 -0.3
v -0.4 0.3 -0.2
v -0.4 0.3 -0.3
v -0.3 0 0.5
v -0.3 0 0.3
v -0.3 0.1 0.5
v -0.3 0.1 0.3
v -0.3 0.1 0.2
v -0.3 0.2 0.3
v -0.3 0.2 0.2
v -0.3 0.2 0
v -0.3 0.2 -0.2
v -0.3 0.3 0
v -0.3 0.3 -0.2
v -0.2 0 0.6
v -0.2 0 0.5
v -0.2 0.1 0.6
v -0.2 0.1 0.5
v -0.2 0.1 0.3
v -0.2 0.2 0.5
v -0.2 0.2 0.3
v -0.2 0.2 0.2
v -0.2 0.2 0
v -0.2 0.3 0.2
v -0.2 0.3 0
v -0.1 0 0.7
v -0.1 0 0.6
v -0.1 0.1 0.7
v -0.1 0.1 0.6
v -0.1 0.1 0.5
v -0.1 0.2 0.6
v -0.1 0.2 0.5
v -0.1 0.2 0.3
v -0.1 0.2 0.2
v -0.1 0.3 0.3
v -0.1 0.3 0.2
v 0.1 0 0.7
v 0.1 0 0.6
v 0.1 0.1 0.7
v 0.1 0.1 0.6
v 0.1 0.1 0.5
v 0.1 0.2 0.6
v 0.1 0.2 0.5
v 0.1 0.2 0.3
v 0.1 0.2 0.2
v 0.1 0.3 0.3
v 0.1 0.3 0.2
v 0.2 0 0.6
v 0.2 0 0.5
v 0.2 0.1 0.6
v 0.2 0.1 0.5
v 0.2 0.1 0.3
v 0.2 0.2 0.5
v 0.2 0.2 0.3
v 0.2 0.2 0.2
v 0.2 0.2 0
v 0.2 0.3 0.2
v 0.2 0.3 0
v 0.3 0 0.5
v 0.3 0 0.3
v 0.3 0.1 0.5
v 0.3 0.1 0.3
v 0.3 0.1 0.2
v 0.3 0.2 0.3
v 0.3 0.2 0.2
v 0.3 0.2 0
v 0.3 0.2 -0.2
v 0.3 0.3 0
v 0.3 0.3 -0.2
v 0.4 0 0.3
v 0.4 0 0.2
v 0.4 0.1 0.3
v 0.4 0.1 0.2
v 0.4 0.1 0
v 0.4 0.2 0.2
v 0.4 0.2 0
v 0.4 0.2 -0.2
v 0.4 0.2 -0.3
v 0.4 0.3 -0.2
v 0.4 0.3 -0.3
v 0.5 0 0.2
v 0.5 0 0
v 0.5 0.1 0.2
v 0.5 0.1 0
v 0.5 0.1 -0.1
v 0.5 0.2 0
v 0.5 0.2 -0.1
v 0.5 0.2 -0.3
v 0.5 0.2 -0.4
v 0.5 0.3 -0.3
v 0.5 0.3 -0.4
v 0.6 0 0
v 0.6 0 -0.1
v 0.6 0 -0.6
v 0.6 0 -0.7
v 0.6 0.1 0
v 0.6 0.1 -0.1
v 0.6 0.1 -0.2
v 0.6 0.1 -0.5
v 0.6 0.1 -0.6
v 0.6 0.1 -0.7
v 0.6 0.2 -0.1
v 0.6 0.2 -0.2
v 0.6 0.2 -0.5
v 0.6 0.2 -0.6
v 0.7 0 -0.1
v 0.7 0 -0.2
v 0.7 0 -0.5
v 0.7 0 -0.6
v 0.7 0.1 -0.1
v 0.7 0.1 -0.2
v 0.7 0.1 -0.5
v 0.7 0.1 -0.6
v 0.7 0.2 -0.2
v 0.7 0.2 -0.5
v 0.8 0 -0.2
v 0.8 0 -0.5
v 0.8 0.1 -0.2
v 0.8 0.1 -0.5
v -0.1 0 0.7
v -0.1 0.1 0.7
v 0.1 0 0.7
v 0.1 0.1 0.7
v -0.2 0 0.6
v -0.2 0.1 0.6
v -0.1 0 0.6
v -0.1 0.1 0.6
v -0.1 0.2 0.6
v 0.1 0 0.6
v 0.1 0.1 0.6
v 0.1 0.2 0.6
v 0.2 0 0.6
v 0.2 0.1 0.6
v -0.3 0 0.5
v -0.3 0.1 0.5
v -0.2 0 0.5
v -0.2 0.1 0.5
v -0.2 0.2 0.5
v -0.1 0.1 0.5
v -0.1 0.2 0.5
v 0.1 0.1 0.5
v 0.1 0.2 0.5
v 0.2 0 0.5
v 0.2 0.1 0.5
v 0.2 0.2 0.5
v 0.3 0 0.5
v 0.3 0.1 0.5
v -0.4 0 0.3
v -0.4 0.1 0.3
v -0.3 0 0.3
v -0.3 0.1 0.3
v -0.3 0.2 0.3
v -0.2 0.1 0.3
v -0.2 0.2 0.3
v -0.1 0.2 0.3
v -0.1 0.3 0.3
v 0.1 0.2 0.3
v 0.1 0.3 0.3
v 0.2 0.1 0.3
v 0.2 0.2 0.3
v 0.3 0 0.3
v 0.3 0.1 0.3
v 0.3 0.2 0.3
v 0.4 0 0.3
v 0.4 0.1 0.3
v -0.5 0 0.2
v -0.5 0.1 0.2
v -0.4 0 0.2
v -0.4 0.1 0.2
v -0.4 0.2 0.2
v -0.3 0.1 0.2
v -0.3 0.2 0.2
v -0.2 0.2 0.2
v -0.2 0.3 0.2
v -0.1 0.2 0.2
v -0.1 0.3 0.2
v 0.1 0.2 0.2
v 0.1 0.3 0.2
v 0.2 0.2 0.2
v 0.2 0.3 0.2
v 0.3 0.1 0.2
v 0.3 0.2 0.2
v 0.4 0 0.2
v 0.4 0.1 0.2
v 0.4 0.2 0.2
v 0.5 0 0.2
v 0.5 0.1 0.2
v -0.6 0 0
v -0.6 0.1 0
v -0.5 0 0
v -0.5 0.1 0
v -0.5 0.2 0
v -0.4 0.1 0
v -0.4 0.2 0
v -0.3 0.2 0
v -0.3 0.3 0
v -0.2 0.2 0
v -0.2 0.3 0
v 0.2 0.2 0
v 0.2 0.3 0
v 0.3 0.2 0
v 0.3 0.3 0
v 0.4 0.1 0
v 0.4 0.2 0
v 0.5 0 0
v 0.5 0.1 0
v 0.5 0.2 0
v 0.6 0 0
v 0.6 0.1 0
v -0.7 0 -0.1
v -0.7 0.1 -0.1
v -0.6 0 -0.1
v -0.6 0.1 -0.1
v -0.6 0.2 -0.1
v -0.5 0.1 -0.1
v -0.5 0.2 -0.1
v 0.5 0.1 -0.1
v 0.5 0.2 -0.1
v 0.6 0 -0.1
v 0.6 0.1 -0.1
v 0.6 0.2 -0.1
v 0.7 0 -0.1
v 0.7 0.1 -0.1
v -0.8 0 -0.2
v -0.8 0.1 -0.2
v -0.7 0 -0.2
v -0.7 0.1 -0.2
v -0.7 0.2 -0.2
v -0.6 0.1 -0.2
v -0.6 0.2 -0.2
v -0.4 0.2 -0.2
v -0.4 0.3 -0.2
v -0.3 0.2 -0.2
v -0.3 0.3 -0.2
v 0.3 0.2 -0.2
v 0.3 0.3 -0.2
v 0.4 0.2 -0.2
v 0.4 0.3 -0.2
v 0.6 0.1 -0.2
v 0.6 0.2 -0.2
v 0.7 0 -0.2
v 0.7 0.1 -0.2
v 0.7 0.2 -0.2
v 0.8 0 -0.2
v 0.8 0.1 -0.2
v -0.5 0.2 -0.3
v -0.5 0.3 -0.3
v -0.4 0.2 -0.3
v -0.4 0.3 -0.3
v 0.4 0.2 -0.3
v 0.4 0.3 -0.3
v 0.5 0.2 -0.3
v 0.5 0.3 -0.3
v -0.5 0.2 -0.4
v -0.5 0.3 -0.4
v 0.5 0.2 -0.4
v 0.5 0.3 -0.4
v -0.8 0 -0.5
v -0.8 0.1 -0.5
v -0.7 0 -0.5
v -0.7 0.1 -0.5
v -0.7 0.2 -0.5
v -0.6 0.1 -0.5
v -0.6 0.2 -0.5
v 0.6 0.1 -0.5
v 0.6 0.2 -0.5
v 0.7 0 -0.5
v 0.7 0.1 -0.5
v 0.7 0.2 -0.5
v 0.8 0 -0.5
v 0.8 0.1 -0.5
v -0.7 0 -0.6
v -0.7 0.1 -0.6
v -0.6 0 -0.6
v -0.6 0.1 -0.6
v -0.6 0.2 -0.6
v 0.6 0 -0.6
v 0.6 0.1 -0.6
v 0.6 0.2 -0.6
v 0.7 0 -0.6
v 0.7 0.1 -0.6
v -0.6 0 -0.7
v -0.6 0.1 -0.7
v 0.6 0 -0.7
v 0.6 0.1 -0.7
v -0.1 0 0.7
v 0.1 0 0.7
v -0.2 0 0.6
v -0.1 0 0.6
v 0.1 0 0.6
v 0.2 0 0.6
v -0.3 0 0.5
v -0.2 0 0.5
v 0.2 0 0.5
v 0.3 0 0.5
v -0.4 0 0.3
v -0.3 0 0.3
v 0.3 0 0.3
v 0.4 0 0.3
v -0.5 0 0.2
v -0.4 0 0.2
v 0.4 0 0.2
v 0.5 0 0.2
v -0.6 0 0
v -0.5 0 0
v 0.5 0 0
v 0.6 0 0
v -0.7 0 -0.1
v -0.6 0 -0.1
v 0.6 0 -0.1
v 0.7 0 -0.1
v -0.8 0 -0.2
v -0.7 0 -0.2
v 0.7 0 -0.2
v 0.8 0 -0.2
v -0.8 0 -0.5
v -0.7 0 -0.5
v 0.7 0 -0.5
v 0.8 0 -0.5
v -0.7 0 -0.6
v -0.6 0 -0.6
v 0.6 0 -0.6
v 0.7 0 -0.6
v -0.6 0 -0.7
v 0.6 0 -0.7
v -0.1 0.1 0.7
v 0.1 0.1 0.7
v -0.2 0.1 0.6
v -0.1 0.1 0.6
v 0.1 0.1 0.6
v 0.2 0.1 0.6
v -0.3 0.1 0.5
v -0.2 0.1 0.5
v -0.1 0.1 0.5
v 0.1 0.1 0.5
v 0.2 0.1 0.5
v 0.3 0.1 0.5
v -0.4 0.1 0.3
v -0.3 0.1 0.3
v -0.2 0.1 0.3
v 0.2 0.1 0.3
v 0.3 0.1 0.3
v 0.4 0.1 0.3
v -0.5 0.1 0.2
v -0.4 0.1 0.2
v -0.3 0.1 0.2
v 0.3 0.1 0.2
v 0.4 0.1 0.2
v 0.5 0.1 0.2
v -0.6 0.1 0
v -0.5 0.1 0
v -0.4 0.1 0
v 0.4 0.1 0
v 0.5 0.1 0
v 0.6 0.1 0
v -0.7 0.1 -0.1
v -0.6 0.1 -0.1
v -0.5 0.1 -0.1
v 0.5 0.1 -0.1
v 0.6 0.1 -0.1
v 0.7 0.1 -0.1
v -0.8 0.1 -0.2
v -0.7 0.1 -0.2
v -0.6 0.1 -0.2
v 0.6 0.1 -0.2
v 0.7 0.1 -0.2
v 0.8 0.1 -0.2
v -0.8 0.1 -0.5
v -0.7 0.1 -0.5
v -0.6 0.1 -0.5
v 0.6 0.1 -0.5
v 0.7 0.1 -0.5
v 0.8 0.1 -0.5
v -0.7 0.1 -0.6
v -0.6 0.1 -0.6
v 0.6 0.1 -0.6
v 0.7 0.1 -0.6
v -0.6 0.1 -0.7
v 0.6 0.1 -0.7
v -0.1 0.2 0.6
v 0.1 0.2 0.6
v -0.2 0.2 0.5
v -0.1 0.2 0.5
v 0.1 0.2 0.5
v 0.2 0.2 0.5
v -0.3 0.2 0.3
v -0.2 0.2 0.3
v -0.1 0.2 0.3
v 0.1 0.2 0.3
v 0.2 0.2 0.3
v 0.3 0.2 0.3
v -0.4 0.2 0.2
v -0.3 0.2 0.2
v -0.2 0.2 0.2
v -0.1 0.2 0.2
v 0.1 0.2 0.2
v 0.2 0.2 0.2
v 0.3 0.2 0.2
v 0.4 0.2 0.2
v -0.5 0.2 0
v -0.4 0.2 0
v -0.3 0.2 0
v -0.2 0.2 0
v 0.2 0.2 0
v 0.3 0.2 0
v 0.4 0.2 0
v 0.5 0.2 0
v -0.6 0.2 -0.1
v -0.5 0.2 -0.1
v 0.5 0.2 -0.1
v 0.6 0.2 -0.1
v -0.7 0.2 -0.2
v -0.6 0.2 -0.2
v -0.5 0.2 -0.2
v -0.4 0.2 -0.2
v -0.3 0.2 -0.2
v 0.3 0.2 -0.2
v 0.4 0.2 -0.2
v 0.5 0.2 -0.2
v 0.6 0.2 -0.2
v 0.7 0.2 -0.2
v -0.6 0.2 -0.3
v -0.5 0.2 -0.3
v -0.4 0.2 -0.3
v 0.4 0.2 -0.3
v 0.5 0.2 -0.3
v 0.6 0.2 -0.3
v -0.5 0.2 -0.4
v 0.5 0.2 -0.4
v -0.7 0.2 -0.5
v -0.6 0.2 -0.5
v 0.6 0.2 -0.5
v 0.7 0.2 -0.5
v -0.6 0.2 -0.6
v 0.6 0.2 -0.6
v -0.1 0.3 0.3
v 0.1 0.3 0.3
v -0.2 0.3 0.2
v -0.1 0.3 0.2
v 0.1 0.3 0.2
v 0.2 0.3 0.2
v -0.3 0.3 0
v -0.2 0.3 0
v -0.1 0.3 0
v 0.2 0.3 0
v 0.3 0.3 0
v -0.4 0.3 -0.2
v -0.3 0.3 -0.2
v -0.2 0.3 -0.2
v -0.1 0.3 -0.2
v 0.3 0.3 -0.2
v 0.4 0.3 -0.2
v -0.5 0.3 -0.3
v -0.4 0.3 -0.3
v -0.3 0.3 -0.3
v -0.2 0.3 -0.3
v 0.4 0.3 -0.3
v 0.5 0.3 -0.3
v -0.5 0.3 -0.4
v 0.5 0.3 -0.4

# faces
f 3/4/1 2/4/1 1/4/1
f 4/4/1 2/4/1 3/4/1
f 9/4/1 6/4/1 5/4/1
f 10/4/1 6/4/1 9/4/1
f 11/4/1 8/4/1 7/4/1
f 12/4/1 8/4/1 11/4/1
f 13/4/1 11/4/1 10/4/1
f 14/4/1 11/4/1 13/4/1
f 19/4/1 16/4/1 15/4/1
f 20/4/1 16/4/1 19/4/1
f 23/4/1 18/4/1 17/4/1
f 24/4/1 18/4/1 23/4/1
f 25/4/1 21/4/1 20/4/1
f 26/4/1 21/4/1 25/4/1
f 27/4/1 23/4/1 22/4/1
f 28/4/1 23/4/1 27/4/1
f 31/4/1 30/4/1 29/4/1
f 32/4/1 30/4/1 31/4/1
f 34/4/1 33/4/1 32/4/1
f 35/4/1 33/4/1 34/4/1
f 38/2/1 37/2/1 36/2/1
f 39/2/1 37/2/1 38/2/1
f 42/4/1 41/4/1 40/4/1
f 43/4/1 41/4/1 42/4/1
f 45/4/1 44/4/1 43/4/1
f 46/4/1 44/4/1 45/4/1
f 49/2/1 48/2/1 47/2/1
f 50/2/1 48/2/1 49/2/1
f 53/4/1 52/4/1 51/4/1
f 54/4/1 52/4/1 53/4/1
f 56/4/1 55/4/1 54/4/1
f 57/4/1 55/4/1 56/4/1
f 60/2/1 59/2/1 58/2/1
f 61/2/1 59/2/1 60/2/1
f 64/4/1 63/4/1 62/4/1
f 65/4/1 63/4/1 64/4/1
f 67/4/1 66/4/1 65/4/1
f 68/4/1 66/4/1 67/4/1
f 71/2/1 70/2/1 69/2/1
f 72/2/1 70/2/1 71/2/1
f 75/4/1 74/4/1 73/4/1
f 76/4/1 74/4/1 75/4/1
f 78/4/1 77/4/1 76/4/1
f 79/4/1 77/4/1 78/4/1
f 82/2/1 81/2/1 80/2/1
f 83/2/1 81/2/1 82/2/1
f 84/4/2 85/4/2 86/4/2
f 86/4/2 85/4/2 87/4/2
f 87/4/2 88/4/2 89/4/2
f 89/4/2 88/4/2 90/4/2
f 91/2/2 92/2/2 93/2/2
f 93/2/2 92/2/2 94/2/2
f 95/4/2 96/4/2 97/4/2
f 97/4/2 96/4/2 98/4/2
f 98/4/2 99/4/2 100/4/2
f 100/4/2 99/4/2 101/4/2
f 102/2/2 103/2/2 104/2/2
f 104/2/2 103/2/2 105/2/2
f 106/4/2 107/4/2 108/4/2
f 108/4/2 107/4/2 109/4/2
f 109/4/2 110/4/2 111/4/2
f 111/4/2 110/4/2 112/4/2
f 113/2/2 114/2/2 115/2/2
f 115/2/2 114/2/2 116/2/2
f 117/4/2 118/4/2 119/4/2
f 119/4/2 118/4/2 120/4/2
f 120/4/2 121/4/2 122/4/2
f 122/4/2 121/4/2 123/4/2
f 124/2/2 125/2/2 126/2/2
f 126/2/2 125/2/2 127/2/2
f 128/4/2 129/4/2 130/4/2
f 130/4/2 129/4/2 131/4/2
f 131/4/2 132/4/2 133/4/2
f 133/4/2 132/4/2 134/4/2
f 135/2/2 136/2/2 137/2/2
f 137/2/2 136/2/2 138/2/2
f 139/4/2 140/4/2 143/4/2
f 143/4/2 140/4/2 144/4/2
f 141/4/2 142/4/2 147/4/2
f 147/4/2 142/4/2 148/4/2
f 144/4/2 145/4/2 149/4/2
f 149/4/2 145/4/2 150/4/2
f 146/4/2 147/4/2 151/4/2
f 151/4/2 147/4/2 152/4/2
f 153/4/2 154/4/2 157/4/2
f 157/4/2 154/4/2 158/4/2
f 155/4/2 156/4/2 159/4/2
f 159/4/2 156/4/2 160/4/2
f 158/4/2 159/4/2 161/4/2
f 161/4/2 159/4/2 162/4/2
f 163/4/2 164/4/2 165/4/2
f 165/4/2 164/4/2 166/4/2
f 169/4/3 168/4/3 167/4/3
f 170/4/3 168/4/3 169/4/3
f 173/4/3 172/4/3 171/4/3
f 174/4/3 172/4/3 173/4/3
f 177/4/3 175/4/3 174/4/3
f 178/4/3 175/4/3 177/4/3
f 179/4/3 177/4/3 176/4/3
f 180/4/3 177/4/3 179/4/3
f 183/4/3 182/4/3 181/4/3
f 184/4/3 182/4/3 183/4/3
f 186/4/3 185/4/3 184/4/3
f 187/4/3 185/4/3 186/4/3
f 191/4/3 189/4/3 188/4/3
f 192/4/3 189/4/3 191/4/3
f 193/4/3 191/4/3 190/4/3
f 194/4/3 191/4/3 193/4/3
f 197/4/3 196/4/3 195/4/3
f 198/4/3 196/4/3 197/4/3
f 200/4/3 199/4/3 198/4/3
f 201/4/3 199/4/3 200/4/3
f 204/2/3 203/2/3 202/2/3
f 205/2/3 203/2/3 204/2/3
f 209/4/3 207/4/3 206/4/3
f 210/4/3 207/4/3 209/4/3
f 211/4/3 209/4/3 208/4/3
f 212/4/3 209/4/3 211/4/3
f 215/4/3 214/4/3 213/4/3
f 216/4/3 214/4/3 215/4/3
f 218/4/3 217/4/3 216/4/3
f 219/4/3 217/4/3 218/4/3
f 222/2/3 221/2/3 220/2/3
f 223/2/3 221/2/3 222/2/3
f 226/2/3 225/2/3 224/2/3
f 227/2/3 225/2/3 226/2/3
f 231/4/3 229/4/3 228/4/3
f 232/4/3 229/4/3 231/4/3
f 233/4/3 231/4/3 230/4/3
f 234/4/3 231/4/3 233/4/3
f 237/4/3 236/4/3 235/4/3
f 238/4/3 236/4/3 237/4/3
f 240/4/3 239/4/3 238/4/3
f 241/4/3 239/4/3 240/4/3
f 244/2/3 243/2/3 242/2/3
f 245/2/3 243/2/3 244/2/3
f 248/2/3 247/2/3 246/2/3
f 249/2/3 247/2/3 248/2/3
f 253/4/3 251/4/3 250/4/3
f 254/4/3 251/4/3 253/4/3
f 255/4/3 253/4/3 252/4/3
f 256/4/3 253/4/3 255/4/3
f 259/4/3 258/4/3 257/4/3
f 260/4/3 258/4/3 259/4/3
f 262/4/3 261/4/3 260/4/3
f 263/4/3 261/4/3 262/4/3
f 267/4/3 265/4/3 264/4/3
f 268/4/3 265/4/3 267/4/3
f 269/4/3 267/4/3 266/4/3
f 270/4/3 267/4/3 269/4/3
f 273/4/3 272/4/3 271/4/3
f 274/4/3 272/4/3 273/4/3
f 276/4/3 275/4/3 274/4/3
f 277/4/3 275/4/3 276/4/3
f 280/2/3 279/2/3 278/2/3
f 281/2/3 279/2/3 280/2/3
f 284/2/3 283/2/3 282/2/3
f 285/2/3 283/2/3 284/2/3
f 289/4/3 287/4/3 286/4/3
f 290/4/3 287/4/3 289/4/3
f 291/4/3 289/4/3 288/4/3
f 292/4/3 289/4/3 291/4/3
f 295/2/3 294/2/3 293/2/3
f 296/2/3 294/2/3 295/2/3
f 299/2/3 298/2/3 297/2/3
f 300/2/3 298/2/3 299/2/3
f 301/2/4 302/2/4 303/2/4
f 303/2/4 302/2/4 304/2/4
f 305/4/4 306/4/4 307/4/4
f 307/4/4 306/4/4 308/4/4
f 308/4/4 309/4/4 310/4/4
f 310/4/4 309/4/4 311/4/4
f 312/4/4 313/4/4 315/4/4
f 315/4/4 313/4/4 316/4/4
f 314/4/4 315/4/4 317/4/4
f 317/4/4 315/4/4 318/4/4
f 319/4/4 320/4/4 321/4/4
f 321/4/4 320/4/4 322/4/4
f 322/4/4 323/4/4 325/4/4
f 325/4/4 323/4/4 326/4/4
f 324/4/4 325/4/4 327/4/4
f 327/4/4 325/4/4 328/4/4
f 329/4/4 330/4/4 331/4/4
f 331/4/4 330/4/4 332/4/4
f 336/4/5 334/4/5 333/4/5
f 337/4/5 334/4/5 336/4/5
f 340/4/5 336/4/5 335/4/5
f 340/4/5 338/4/5 337/4/5
f 340/4/5 337/4/5 336/4/5
f 341/4/5 338/4/5 340/4/5
f 344/4/5 340/4/5 339/4/5
f 344/4/5 342/4/5 341/4/5
f 344/4/5 341/4/5 340/4/5
f 345/4/5 342/4/5 344/4/5
f 348/4/5 344/4/5 343/4/5
f 348/4/5 346/4/5 345/4/5
f 348/4/5 345/4/5 344/4/5
f 349/4/5 346/4/5 348/4/5
f 352/4/5 348/4/5 347/4/5
f 352/4/5 350/4/5 349/4/5
f 352/4/5 349/4/5 348/4/5
f 353/4/5 350/4/5 352/4/5
f 356/4/5 352/4/5 351/4/5
f 356/4/5 354/4/5 353/4/5
f 356/4/5 353/4/5 352/4/5
f 357/4/5 354/4/5 356/4/5
f 360/4/5 356/4/5 355/4/5
f 360/4/5 358/4/5 357/4/5
f 360/4/5 357/4/5 356/4/5
f 361/4/5 358/4/5 360/4/5
f 363/4/5 360/4/5 359/4/5
f 363/4/5 362/4/5 361/4/5
f 363/4/5 361/4/5 360/4/5
f 364/4/5 362/4/5 363/4/5
f 365/4/5 362/4/5 364/4/5
f 366/4/5 362/4/5 365/4/5
f 367/4/5 365/4/5 364/4/5
f 368/4/5 365/4/5 367/4/5
f 369/4/5 365/4/5 368/4/5
f 370/4/5 365/4/5 369/4/5
f 371/4/5 369/4/5 368/4/5
f 372/4/5 369/4/5 371/4/5
f 373/4/6 374/4/6 376/4/6
f 376/4/6 374/4/6 377/4/6
f 375/4/6 376/4/6 380/4/6
f 380/4/6 376/4/6 381/4/6
f 377/4/6 378/4/6 382/4/6
f 382/4/6 378/4/6 383/4/6
f 379/4/6 380/4/6 386/4/6
f 386/4/6 380/4/6 387/4/6
f 383/4/6 384/4/6 388/4/6
f 388/4/6 384/4/6 389/4/6
f 385/4/6 386/4/6 392/4/6
f 392/4/6 386/4/6 393/4/6
f 389/4/6 390/4/6 394/4/6
f 394/4/6 390/4/6 395/4/6
f 391/4/6 392/4/6 398/4/6
f 398/4/6 392/4/6 399/4/6
f 395/4/6 396/4/6 400/4/6
f 400/4/6 396/4/6 401/4/6
f 397/4/6 398/4/6 404/4/6
f 404/4/6 398/4/6 405/4/6
f 401/4/6 402/4/6 406/4/6
f 406/4/6 402/4/6 407/4/6
f 403/4/6 404/4/6 410/4/6
f 410/4/6 404/4/6 411/4/6
f 407/4/6 408/4/6 412/4/6
f 412/4/6 408/4/6 413/4/6
f 409/4/6 410/4/6 415/4/6
f 415/4/6 410/4/6 416/4/6
f 413/4/6 414/4/6 419/4/6
f 419/4/6 414/4/6 420/4/6
f 416/4/6 417/4/6 421/4/6
f 421/4/6 417/4/6 422/4/6
f 418/4/6 419/4/6 423/4/6
f 423/4/6 419/4/6 424/4/6
f 422/4/6 423/4/6 425/4/6
f 425/4/6 423/4/6 426/4/6
f 427/4/6 428/4/6 430/4/6
f 430/4/6 428/4/6 431/4/6
f 429/4/6 430/4/6 434/4/6
f 430/1/6 431/1/6 435/1/6
f 434/4/6 430/4/6 435/4/6
f 431/4/6 432/4/6 436/4/6
f 435/1/6 431/1/6 436/1/6
f 436/4/6 432/4/6 437/4/6
f 433/4/6 434/4/6 440/4/6
f 434/1/6 435/1/6 441/1/6
f 440/4/6 434/4/6 441/4/6
f 441/1/6 435/1/6 442/1/6
f 436/1/6 437/1/6 443/1/6
f 437/4/6 438/4/6 444/4/6
f 443/1/6 437/1/6 444/1/6
f 444/4/6 438/4/6 445/4/6
f 439/4/6 440/4/6 448/4/6
f 440/1/6 441/1/6 449/1/6
f 448/4/6 440/4/6 449/4/6
f 449/1/6 441/1/6 450/1/6
f 444/1/6 445/1/6 451/1/6
f 445/4/6 446/4/6 452/4/6
f 451/1/6 445/1/6 452/1/6
f 452/4/6 446/4/6 453/4/6
f 447/4/6 448/4/6 456/4/6
f 453/4/6 454/4/6 457/4/6
f 455/4/6 456/4/6 460/4/6
f 456/4/6 448/4/6 461/4/6
f 460/4/6 456/4/6 461/4/6
f 448/1/6 449/1/6 462/1/6
f 461/4/6 448/4/6 462/4/6
f 462/1/6 449/1/6 463/1/6
f 452/1/6 453/1/6 464/1/6
f 457/4/6 458/4/6 465/4/6
f 464/1/6 453/1/6 465/1/6
f 453/4/6 457/4/6 465/4/6
f 465/4/6 458/4/6 466/4/6
f 466/4/6 458/4/6 467/4/6
f 460/4/6 461/4/6 469/4/6
f 459/4/6 460/4/6 469/4/6
f 461/1/6 462/1/6 470/1/6
f 469/4/6 461/4/6 470/4/6
f 470/1/6 462/1/6 471/1/6
f 465/1/6 466/1/6 472/1/6
f 467/4/6 468/4/6 473/4/6
f 472/1/6 466/1/6 473/1/6
f 466/4/6 467/4/6 473/4/6
f 473/4/6 468/4/6 474/4/6
f 469/1/6 470/1/6 475/1/6
f 473/1/6 474/1/6 476/1/6
f 459/4/6 469/4/6 477/4/6
f 469/1/6 475/1/6 478/1/6
f 477/4/6 469/4/6 478/4/6
f 475/1/6 476/1/6 478/1/6
f 474/4/6 468/4/6 479/4/6
f 478/1/6 476/1/6 479/1/6
f 476/1/6 474/1/6 479/1/6
f 479/4/6 468/4/6 480/4/6
f 478/4/6 479/4/6 481/4/6
f 481/4/6 479/4/6 482/4/6
f 483/2/6 484/2/6 486/2/6
f 486/2/6 484/2/6 487/2/6
f 485/2/6 486/2/6 490/2/6
f 487/2/6 488/2/6 490/2/6
f 486/2/6 487/2/6 490/2/6
f 490/2/6 488/2/6 491/2/6
f 491/2/6 488/2/6 492/2/6
f 489/2/6 490/2/6 495/2/6
f 490/3/6 491/3/6 496/3/6
f 495/2/6 490/2/6 496/2/6
f 492/2/6 493/2/6 497/2/6
f 496/3/6 491/3/6 497/3/6
f 491/2/6 492/2/6 497/2/6
f 497/2/6 493/2/6 498/2/6
f 494/2/6 495/2/6 501/2/6
f 495/3/6 496/3/6 502/3/6
f 501/2/6 495/2/6 502/2/6
f 498/2/6 499/2/6 503/2/6
f 502/3/6 496/3/6 503/3/6
f 496/2/6 497/2/6 503/2/6
f 497/2/6 498/2/6 503/2/6
f 503/2/6 499/2/6 504/2/6
f 500/2/6 501/2/6 506/2/6
f 504/2/6 505/2/6 506/2/6
f 503/2/6 504/2/6 506/2/6
f 502/2/6 503/2/6 506/2/6
f 501/2/6 502/2/6 506/2/6
f 506/2/6 505/2/6 507/2/6
